<mxfile host="app.diagrams.net" agent="Mozilla/5.0 (Windows NT 10.0; Win64; x64) AppleWebKit/537.36 (KHTML, like Gecko) Chrome/132.0.0.0 Safari/537.36 Edg/132.0.0.0" version="26.0.16">
  <diagram name="Page-1" id="LxWORdzGAKaYi0FCdO2w">
    <mxGraphModel dx="4034" dy="2310" grid="1" gridSize="10" guides="1" tooltips="1" connect="1" arrows="1" fold="1" page="1" pageScale="1" pageWidth="827" pageHeight="1169" math="0" shadow="0">
      <root>
        <mxCell id="0" />
        <mxCell id="1" parent="0" />
        <UserObject label="" plantUmlData="{&#xa;  &quot;data&quot;: &quot;@startuml\n\nclass AccessCard {\n    - String cardId\n    - int startDay\n    - int endDay\n    - String startTime\n    - String endTime\n    - String cardType\n    + AccessCard(String, int, int, String, String, String)\n    + String getCardId()\n    + String getCardType()\n    + void setCardType(String)\n    + boolean isAccessAllowed(int, String)\n    + void setAccessPeriod(int, int, String, String)\n    + boolean canAccessLevel(String)\n    + String toString()\n}\n\nclass CardManager {\n    - List&lt;AccessCard&gt; cards\n    + CardManager()\n    + void addCard(AccessCard)\n    + AccessCard getCard(String)\n    + void removeCard(String)\n    + List&lt;AccessCard&gt; getAllCards()\n}\n\nclass CardType {\n    {enum} SILVER\n    {enum} GOLD\n    {enum} PLATINUM\n}\n\nclass FitnessAccessControl {\n    - JTextField cardIdField\n    - JTextField startDayField\n    - JTextField endDayField\n    - JTextField startTimeField\n    - JTextField endTimeField\n    - JTextArea logArea\n    - JComboBox&lt;String&gt; cardTypeComboBox\n    - CardManager cardManager\n    + FitnessAccessControl()\n    + void addCard()\n    + void modifyCard()\n    + void revokeCard()\n    + void checkAccess()\n    + void showCards()\n}\n\nAccessCard \&quot;1\&quot; -- \&quot;*\&quot; CardManager\nCardManager \&quot;1\&quot; -- \&quot;*\&quot; AccessCard\nAccessCard \&quot;1\&quot; -- \&quot;1\&quot; CardType\nFitnessAccessControl \&quot;1\&quot; -- \&quot;1\&quot; CardManager\n\n@enduml\n&quot;,&#xa;  &quot;format&quot;: &quot;svg&quot;&#xa;}" id="OpttjpxbNmITBwXFqlZf-4">
          <mxCell style="shape=image;noLabel=1;verticalAlign=top;aspect=fixed;imageAspect=0;image=data:image/svg+xml,PD94bWwgdmVyc2lvbj0iMS4wIiBlbmNvZGluZz0idXMtYXNjaWkiIHN0YW5kYWxvbmU9Im5vIj8+PHN2ZyB4bWxucz0iaHR0cDovL3d3dy53My5vcmcvMjAwMC9zdmciIHhtbG5zOnhsaW5rPSJodHRwOi8vd3d3LnczLm9yZy8xOTk5L3hsaW5rIiBjb250ZW50U3R5bGVUeXBlPSJ0ZXh0L2NzcyIgaGVpZ2h0PSI0NjlweCIgcHJlc2VydmVBc3BlY3RSYXRpbz0ibm9uZSIgc3R5bGU9IndpZHRoOjcwOHB4O2hlaWdodDo0NjlweDtiYWNrZ3JvdW5kOiNGRkZGRkY7IiB2ZXJzaW9uPSIxLjEiIHZpZXdCb3g9IjAgMCA3MDggNDY5IiB3aWR0aD0iNzA4cHgiIHpvb21BbmRQYW49Im1hZ25pZnkiPjxkZWZzLz48Zz48IS0tY2xhc3MgQWNjZXNzQ2FyZC0tPjxnIGlkPSJlbGVtX0FjY2Vzc0NhcmQiPjxyZWN0IGNvZGVMaW5lPSIxIiBmaWxsPSIjRjFGMUYxIiBoZWlnaHQ9IjI1Ny43ODEzIiBpZD0iQWNjZXNzQ2FyZCIgcng9IjIuNSIgcnk9IjIuNSIgc3R5bGU9InN0cm9rZTojMTgxODE4O3N0cm9rZS13aWR0aDowLjU7IiB3aWR0aD0iMzkyIiB4PSIzMDkuNSIgeT0iNyIvPjxlbGxpcHNlIGN4PSI0NjYuMjUiIGN5PSIyMyIgZmlsbD0iI0FERDFCMiIgcng9IjExIiByeT0iMTEiIHN0eWxlPSJzdHJva2U6IzE4MTgxODtzdHJva2Utd2lkdGg6MS4wOyIvPjxwYXRoIGQ9Ik00NjMuODc1LDI3LjI1IEw0NjMuODc1LDI5IEw0NjguODEyNSwyOSBMNDY4LjgxMjUsMjcuMjUgTDQ2My44NzUsMjcuMjUgWiBNNDY0LjU2MjUsMjcuOTM3NSBRNDY0LjU2MjUsMjcuOTM3NSA0NjQuNTYyNSwxOC43NSBMNDYyLjgxMjUsMTguNzUgUTQ2Mi44MTI1LDE4Ljc1IDQ2Mi44MTI1LDI3LjkzNzUgTDQ2NC41NjI1LDI3LjkzNzUgWiBNNDY4LjEyNSwyNy45Mzc1IEw0NjkuODc1LDI3LjkzNzUgUTQ2OS44NzUsMjcuOTM3NSA0NjkuODc1LDI1LjEyNSBMNDY4LjEyNSwyNS4xMjUgUTQ2OC4xMjUsMjUuMTI1IDQ2OC4xMjUsMjcuOTM3NSBaIE00NjguMTI1LDE4Ljc1IFE0NjguMTI1LDE4Ljc1IDQ2OC4xMjUsMjEuNTYyNSBMNDY5Ljg3NSwyMS41NjI1IFE0NjkuODc1LDIxLjU2MjUgNDY5Ljg3NSwxOC43NSBMNDY4LjEyNSwxOC43NSBaIE00NjMuODc1LDE5LjQzNzUgTDQ2OC44MTI1LDE5LjQzNzUgTDQ2OC44MTI1LDE3LjY4NzUgTDQ2My44NzUsMTcuNjg3NSBMNDYzLjg3NSwxOS40Mzc1IFogIiBmaWxsPSIjMDAwMDAwIi8+PHRleHQgZmlsbD0iIzAwMDAwMCIgZm9udC1mYW1pbHk9InNhbnMtc2VyaWYiIGZvbnQtc2l6ZT0iMTQiIGxlbmd0aEFkanVzdD0ic3BhY2luZyIgdGV4dExlbmd0aD0iNzAiIHg9IjQ4Ni43NSIgeT0iMjguNzQyMiI+QWNjZXNzQ2FyZDwvdGV4dD48bGluZSBzdHlsZT0ic3Ryb2tlOiMxODE4MTg7c3Ryb2tlLXdpZHRoOjAuNTsiIHgxPSIzMTAuNSIgeDI9IjcwMC41IiB5MT0iMzkiIHkyPSIzOSIvPjxyZWN0IGZpbGw9Im5vbmUiIGhlaWdodD0iNiIgc3R5bGU9InN0cm9rZTojQzgyOTMwO3N0cm9rZS13aWR0aDoxLjA7IiB3aWR0aD0iNiIgeD0iMzE3LjUiIHk9IjQ4Ljk5MjIiLz48dGV4dCBmaWxsPSIjMDAwMDAwIiBmb250LWZhbWlseT0ic2Fucy1zZXJpZiIgZm9udC1zaXplPSIxNCIgbGVuZ3RoQWRqdXN0PSJzcGFjaW5nIiB0ZXh0TGVuZ3RoPSI5MSIgeD0iMzI5LjUiIHk9IjU2LjIzNDQiPlN0cmluZyBjYXJkSWQ8L3RleHQ+PHJlY3QgZmlsbD0ibm9uZSIgaGVpZ2h0PSI2IiBzdHlsZT0ic3Ryb2tlOiNDODI5MzA7c3Ryb2tlLXdpZHRoOjEuMDsiIHdpZHRoPSI2IiB4PSIzMTcuNSIgeT0iNjMuOTc2NiIvPjx0ZXh0IGZpbGw9IiMwMDAwMDAiIGZvbnQtZmFtaWx5PSJzYW5zLXNlcmlmIiBmb250LXNpemU9IjE0IiBsZW5ndGhBZGp1c3Q9InNwYWNpbmciIHRleHRMZW5ndGg9Ijg0IiB4PSIzMjkuNSIgeT0iNzEuMjE4OCI+aW50IHN0YXJ0RGF5PC90ZXh0PjxyZWN0IGZpbGw9Im5vbmUiIGhlaWdodD0iNiIgc3R5bGU9InN0cm9rZTojQzgyOTMwO3N0cm9rZS13aWR0aDoxLjA7IiB3aWR0aD0iNiIgeD0iMzE3LjUiIHk9Ijc4Ljk2MDkiLz48dGV4dCBmaWxsPSIjMDAwMDAwIiBmb250LWZhbWlseT0ic2Fucy1zZXJpZiIgZm9udC1zaXplPSIxNCIgbGVuZ3RoQWRqdXN0PSJzcGFjaW5nIiB0ZXh0TGVuZ3RoPSI3MCIgeD0iMzI5LjUiIHk9Ijg2LjIwMzEiPmludCBlbmREYXk8L3RleHQ+PHJlY3QgZmlsbD0ibm9uZSIgaGVpZ2h0PSI2IiBzdHlsZT0ic3Ryb2tlOiNDODI5MzA7c3Ryb2tlLXdpZHRoOjEuMDsiIHdpZHRoPSI2IiB4PSIzMTcuNSIgeT0iOTMuOTQ1MyIvPjx0ZXh0IGZpbGw9IiMwMDAwMDAiIGZvbnQtZmFtaWx5PSJzYW5zLXNlcmlmIiBmb250LXNpemU9IjE0IiBsZW5ndGhBZGp1c3Q9InNwYWNpbmciIHRleHRMZW5ndGg9IjExMyIgeD0iMzI5LjUiIHk9IjEwMS4xODc1Ij5TdHJpbmcgc3RhcnRUaW1lPC90ZXh0PjxyZWN0IGZpbGw9Im5vbmUiIGhlaWdodD0iNiIgc3R5bGU9InN0cm9rZTojQzgyOTMwO3N0cm9rZS13aWR0aDoxLjA7IiB3aWR0aD0iNiIgeD0iMzE3LjUiIHk9IjEwOC45Mjk3Ii8+PHRleHQgZmlsbD0iIzAwMDAwMCIgZm9udC1mYW1pbHk9InNhbnMtc2VyaWYiIGZvbnQtc2l6ZT0iMTQiIGxlbmd0aEFkanVzdD0ic3BhY2luZyIgdGV4dExlbmd0aD0iOTkiIHg9IjMyOS41IiB5PSIxMTYuMTcxOSI+U3RyaW5nIGVuZFRpbWU8L3RleHQ+PHJlY3QgZmlsbD0ibm9uZSIgaGVpZ2h0PSI2IiBzdHlsZT0ic3Ryb2tlOiNDODI5MzA7c3Ryb2tlLXdpZHRoOjEuMDsiIHdpZHRoPSI2IiB4PSIzMTcuNSIgeT0iMTIzLjkxNDEiLz48dGV4dCBmaWxsPSIjMDAwMDAwIiBmb250LWZhbWlseT0ic2Fucy1zZXJpZiIgZm9udC1zaXplPSIxNCIgbGVuZ3RoQWRqdXN0PSJzcGFjaW5nIiB0ZXh0TGVuZ3RoPSIxMDUiIHg9IjMyOS41IiB5PSIxMzEuMTU2MyI+U3RyaW5nIGNhcmRUeXBlPC90ZXh0PjxsaW5lIHN0eWxlPSJzdHJva2U6IzE4MTgxODtzdHJva2Utd2lkdGg6MC41OyIgeDE9IjMxMC41IiB4Mj0iNzAwLjUiIHkxPSIxMzYuOTA2MyIgeTI9IjEzNi45MDYzIi8+PGVsbGlwc2UgY3g9IjMyMC41IiBjeT0iMTQ5Ljg5ODQiIGZpbGw9IiM4NEJFODQiIHJ4PSIzIiByeT0iMyIgc3R5bGU9InN0cm9rZTojMDM4MDQ4O3N0cm9rZS13aWR0aDoxLjA7Ii8+PHRleHQgZmlsbD0iIzAwMDAwMCIgZm9udC1mYW1pbHk9InNhbnMtc2VyaWYiIGZvbnQtc2l6ZT0iMTQiIGxlbmd0aEFkanVzdD0ic3BhY2luZyIgdGV4dExlbmd0aD0iMzY2IiB4PSIzMjkuNSIgeT0iMTU0LjE0MDYiPkFjY2Vzc0NhcmQoU3RyaW5nLCBpbnQsIGludCwgU3RyaW5nLCBTdHJpbmcsIFN0cmluZyk8L3RleHQ+PGVsbGlwc2UgY3g9IjMyMC41IiBjeT0iMTY0Ljg4MjgiIGZpbGw9IiM4NEJFODQiIHJ4PSIzIiByeT0iMyIgc3R5bGU9InN0cm9rZTojMDM4MDQ4O3N0cm9rZS13aWR0aDoxLjA7Ii8+PHRleHQgZmlsbD0iIzAwMDAwMCIgZm9udC1mYW1pbHk9InNhbnMtc2VyaWYiIGZvbnQtc2l6ZT0iMTQiIGxlbmd0aEFkanVzdD0ic3BhY2luZyIgdGV4dExlbmd0aD0iMTI4IiB4PSIzMjkuNSIgeT0iMTY5LjEyNSI+U3RyaW5nIGdldENhcmRJZCgpPC90ZXh0PjxlbGxpcHNlIGN4PSIzMjAuNSIgY3k9IjE3OS44NjcyIiBmaWxsPSIjODRCRTg0IiByeD0iMyIgcnk9IjMiIHN0eWxlPSJzdHJva2U6IzAzODA0ODtzdHJva2Utd2lkdGg6MS4wOyIvPjx0ZXh0IGZpbGw9IiMwMDAwMDAiIGZvbnQtZmFtaWx5PSJzYW5zLXNlcmlmIiBmb250LXNpemU9IjE0IiBsZW5ndGhBZGp1c3Q9InNwYWNpbmciIHRleHRMZW5ndGg9IjE0MiIgeD0iMzI5LjUiIHk9IjE4NC4xMDk0Ij5TdHJpbmcgZ2V0Q2FyZFR5cGUoKTwvdGV4dD48ZWxsaXBzZSBjeD0iMzIwLjUiIGN5PSIxOTQuODUxNiIgZmlsbD0iIzg0QkU4NCIgcng9IjMiIHJ5PSIzIiBzdHlsZT0ic3Ryb2tlOiMwMzgwNDg7c3Ryb2tlLXdpZHRoOjEuMDsiLz48dGV4dCBmaWxsPSIjMDAwMDAwIiBmb250LWZhbWlseT0ic2Fucy1zZXJpZiIgZm9udC1zaXplPSIxNCIgbGVuZ3RoQWRqdXN0PSJzcGFjaW5nIiB0ZXh0TGVuZ3RoPSIxNzAiIHg9IjMyOS41IiB5PSIxOTkuMDkzOCI+dm9pZCBzZXRDYXJkVHlwZShTdHJpbmcpPC90ZXh0PjxlbGxpcHNlIGN4PSIzMjAuNSIgY3k9IjIwOS44MzU5IiBmaWxsPSIjODRCRTg0IiByeD0iMyIgcnk9IjMiIHN0eWxlPSJzdHJva2U6IzAzODA0ODtzdHJva2Utd2lkdGg6MS4wOyIvPjx0ZXh0IGZpbGw9IiMwMDAwMDAiIGZvbnQtZmFtaWx5PSJzYW5zLXNlcmlmIiBmb250LXNpemU9IjE0IiBsZW5ndGhBZGp1c3Q9InNwYWNpbmciIHRleHRMZW5ndGg9IjI1NSIgeD0iMzI5LjUiIHk9IjIxNC4wNzgxIj5ib29sZWFuIGlzQWNjZXNzQWxsb3dlZChpbnQsIFN0cmluZyk8L3RleHQ+PGVsbGlwc2UgY3g9IjMyMC41IiBjeT0iMjI0LjgyMDMiIGZpbGw9IiM4NEJFODQiIHJ4PSIzIiByeT0iMyIgc3R5bGU9InN0cm9rZTojMDM4MDQ4O3N0cm9rZS13aWR0aDoxLjA7Ii8+PHRleHQgZmlsbD0iIzAwMDAwMCIgZm9udC1mYW1pbHk9InNhbnMtc2VyaWYiIGZvbnQtc2l6ZT0iMTQiIGxlbmd0aEFkanVzdD0ic3BhY2luZyIgdGV4dExlbmd0aD0iMzI0IiB4PSIzMjkuNSIgeT0iMjI5LjA2MjUiPnZvaWQgc2V0QWNjZXNzUGVyaW9kKGludCwgaW50LCBTdHJpbmcsIFN0cmluZyk8L3RleHQ+PGVsbGlwc2UgY3g9IjMyMC41IiBjeT0iMjM5LjgwNDciIGZpbGw9IiM4NEJFODQiIHJ4PSIzIiByeT0iMyIgc3R5bGU9InN0cm9rZTojMDM4MDQ4O3N0cm9rZS13aWR0aDoxLjA7Ii8+PHRleHQgZmlsbD0iIzAwMDAwMCIgZm9udC1mYW1pbHk9InNhbnMtc2VyaWYiIGZvbnQtc2l6ZT0iMTQiIGxlbmd0aEFkanVzdD0ic3BhY2luZyIgdGV4dExlbmd0aD0iMjEyIiB4PSIzMjkuNSIgeT0iMjQ0LjA0NjkiPmJvb2xlYW4gY2FuQWNjZXNzTGV2ZWwoU3RyaW5nKTwvdGV4dD48ZWxsaXBzZSBjeD0iMzIwLjUiIGN5PSIyNTQuNzg5MSIgZmlsbD0iIzg0QkU4NCIgcng9IjMiIHJ5PSIzIiBzdHlsZT0ic3Ryb2tlOiMwMzgwNDg7c3Ryb2tlLXdpZHRoOjEuMDsiLz48dGV4dCBmaWxsPSIjMDAwMDAwIiBmb250LWZhbWlseT0ic2Fucy1zZXJpZiIgZm9udC1zaXplPSIxNCIgbGVuZ3RoQWRqdXN0PSJzcGFjaW5nIiB0ZXh0TGVuZ3RoPSIxMjEiIHg9IjMyOS41IiB5PSIyNTkuMDMxMyI+U3RyaW5nIHRvU3RyaW5nKCk8L3RleHQ+PC9nPjwhLS1jbGFzcyBDYXJkTWFuYWdlci0tPjxnIGlkPSJlbGVtX0NhcmRNYW5hZ2VyIj48cmVjdCBjb2RlTGluZT0iMTgiIGZpbGw9IiNGMUYxRjEiIGhlaWdodD0iMTM3LjkwNjMiIGlkPSJDYXJkTWFuYWdlciIgcng9IjIuNSIgcnk9IjIuNSIgc3R5bGU9InN0cm9rZTojMTgxODE4O3N0cm9rZS13aWR0aDowLjU7IiB3aWR0aD0iMjM4IiB4PSIyNzkuNSIgeT0iMzI1Ii8+PGVsbGlwc2UgY3g9IjM1NS43NSIgY3k9IjM0MSIgZmlsbD0iI0FERDFCMiIgcng9IjExIiByeT0iMTEiIHN0eWxlPSJzdHJva2U6IzE4MTgxODtzdHJva2Utd2lkdGg6MS4wOyIvPjxwYXRoIGQ9Ik0zNTMuMzc1LDM0NS4yNSBMMzUzLjM3NSwzNDcgTDM1OC4zMTI1LDM0NyBMMzU4LjMxMjUsMzQ1LjI1IEwzNTMuMzc1LDM0NS4yNSBaIE0zNTQuMDYyNSwzNDUuOTM3NSBRMzU0LjA2MjUsMzQ1LjkzNzUgMzU0LjA2MjUsMzM2Ljc1IEwzNTIuMzEyNSwzMzYuNzUgUTM1Mi4zMTI1LDMzNi43NSAzNTIuMzEyNSwzNDUuOTM3NSBMMzU0LjA2MjUsMzQ1LjkzNzUgWiBNMzU3LjYyNSwzNDUuOTM3NSBMMzU5LjM3NSwzNDUuOTM3NSBRMzU5LjM3NSwzNDUuOTM3NSAzNTkuMzc1LDM0My4xMjUgTDM1Ny42MjUsMzQzLjEyNSBRMzU3LjYyNSwzNDMuMTI1IDM1Ny42MjUsMzQ1LjkzNzUgWiBNMzU3LjYyNSwzMzYuNzUgUTM1Ny42MjUsMzM2Ljc1IDM1Ny42MjUsMzM5LjU2MjUgTDM1OS4zNzUsMzM5LjU2MjUgUTM1OS4zNzUsMzM5LjU2MjUgMzU5LjM3NSwzMzYuNzUgTDM1Ny42MjUsMzM2Ljc1IFogTTM1My4zNzUsMzM3LjQzNzUgTDM1OC4zMTI1LDMzNy40Mzc1IEwzNTguMzEyNSwzMzUuNjg3NSBMMzUzLjM3NSwzMzUuNjg3NSBMMzUzLjM3NSwzMzcuNDM3NSBaICIgZmlsbD0iIzAwMDAwMCIvPjx0ZXh0IGZpbGw9IiMwMDAwMDAiIGZvbnQtZmFtaWx5PSJzYW5zLXNlcmlmIiBmb250LXNpemU9IjE0IiBsZW5ndGhBZGp1c3Q9InNwYWNpbmciIHRleHRMZW5ndGg9Ijc3IiB4PSIzNzYuMjUiIHk9IjM0Ni43NDIyIj5DYXJkTWFuYWdlcjwvdGV4dD48bGluZSBzdHlsZT0ic3Ryb2tlOiMxODE4MTg7c3Ryb2tlLXdpZHRoOjAuNTsiIHgxPSIyODAuNSIgeDI9IjUxNi41IiB5MT0iMzU3IiB5Mj0iMzU3Ii8+PHJlY3QgZmlsbD0ibm9uZSIgaGVpZ2h0PSI2IiBzdHlsZT0ic3Ryb2tlOiNDODI5MzA7c3Ryb2tlLXdpZHRoOjEuMDsiIHdpZHRoPSI2IiB4PSIyODcuNSIgeT0iMzY2Ljk5MjIiLz48dGV4dCBmaWxsPSIjMDAwMDAwIiBmb250LWZhbWlseT0ic2Fucy1zZXJpZiIgZm9udC1zaXplPSIxNCIgbGVuZ3RoQWRqdXN0PSJzcGFjaW5nIiB0ZXh0TGVuZ3RoPSIxNTQiIHg9IjI5OS41IiB5PSIzNzQuMjM0NCI+TGlzdCZsdDtBY2Nlc3NDYXJkJmd0OyBjYXJkczwvdGV4dD48bGluZSBzdHlsZT0ic3Ryb2tlOiMxODE4MTg7c3Ryb2tlLXdpZHRoOjAuNTsiIHgxPSIyODAuNSIgeDI9IjUxNi41IiB5MT0iMzc5Ljk4NDQiIHkyPSIzNzkuOTg0NCIvPjxlbGxpcHNlIGN4PSIyOTAuNSIgY3k9IjM5Mi45NzY2IiBmaWxsPSIjODRCRTg0IiByeD0iMyIgcnk9IjMiIHN0eWxlPSJzdHJva2U6IzAzODA0ODtzdHJva2Utd2lkdGg6MS4wOyIvPjx0ZXh0IGZpbGw9IiMwMDAwMDAiIGZvbnQtZmFtaWx5PSJzYW5zLXNlcmlmIiBmb250LXNpemU9IjE0IiBsZW5ndGhBZGp1c3Q9InNwYWNpbmciIHRleHRMZW5ndGg9IjkzIiB4PSIyOTkuNSIgeT0iMzk3LjIxODgiPkNhcmRNYW5hZ2VyKCk8L3RleHQ+PGVsbGlwc2UgY3g9IjI5MC41IiBjeT0iNDA3Ljk2MDkiIGZpbGw9IiM4NEJFODQiIHJ4PSIzIiByeT0iMyIgc3R5bGU9InN0cm9rZTojMDM4MDQ4O3N0cm9rZS13aWR0aDoxLjA7Ii8+PHRleHQgZmlsbD0iIzAwMDAwMCIgZm9udC1mYW1pbHk9InNhbnMtc2VyaWYiIGZvbnQtc2l6ZT0iMTQiIGxlbmd0aEFkanVzdD0ic3BhY2luZyIgdGV4dExlbmd0aD0iMTcwIiB4PSIyOTkuNSIgeT0iNDEyLjIwMzEiPnZvaWQgYWRkQ2FyZChBY2Nlc3NDYXJkKTwvdGV4dD48ZWxsaXBzZSBjeD0iMjkwLjUiIGN5PSI0MjIuOTQ1MyIgZmlsbD0iIzg0QkU4NCIgcng9IjMiIHJ5PSIzIiBzdHlsZT0ic3Ryb2tlOiMwMzgwNDg7c3Ryb2tlLXdpZHRoOjEuMDsiLz48dGV4dCBmaWxsPSIjMDAwMDAwIiBmb250LWZhbWlseT0ic2Fucy1zZXJpZiIgZm9udC1zaXplPSIxNCIgbGVuZ3RoQWRqdXN0PSJzcGFjaW5nIiB0ZXh0TGVuZ3RoPSIxODQiIHg9IjI5OS41IiB5PSI0MjcuMTg3NSI+QWNjZXNzQ2FyZCBnZXRDYXJkKFN0cmluZyk8L3RleHQ+PGVsbGlwc2UgY3g9IjI5MC41IiBjeT0iNDM3LjkyOTciIGZpbGw9IiM4NEJFODQiIHJ4PSIzIiByeT0iMyIgc3R5bGU9InN0cm9rZTojMDM4MDQ4O3N0cm9rZS13aWR0aDoxLjA7Ii8+PHRleHQgZmlsbD0iIzAwMDAwMCIgZm9udC1mYW1pbHk9InNhbnMtc2VyaWYiIGZvbnQtc2l6ZT0iMTQiIGxlbmd0aEFkanVzdD0ic3BhY2luZyIgdGV4dExlbmd0aD0iMTY0IiB4PSIyOTkuNSIgeT0iNDQyLjE3MTkiPnZvaWQgcmVtb3ZlQ2FyZChTdHJpbmcpPC90ZXh0PjxlbGxpcHNlIGN4PSIyOTAuNSIgY3k9IjQ1Mi45MTQxIiBmaWxsPSIjODRCRTg0IiByeD0iMyIgcnk9IjMiIHN0eWxlPSJzdHJva2U6IzAzODA0ODtzdHJva2Utd2lkdGg6MS4wOyIvPjx0ZXh0IGZpbGw9IiMwMDAwMDAiIGZvbnQtZmFtaWx5PSJzYW5zLXNlcmlmIiBmb250LXNpemU9IjE0IiBsZW5ndGhBZGp1c3Q9InNwYWNpbmciIHRleHRMZW5ndGg9IjIxMiIgeD0iMjk5LjUiIHk9IjQ1Ny4xNTYzIj5MaXN0Jmx0O0FjY2Vzc0NhcmQmZ3Q7IGdldEFsbENhcmRzKCk8L3RleHQ+PC9nPjwhLS1jbGFzcyBDYXJkVHlwZS0tPjxnIGlkPSJlbGVtX0NhcmRUeXBlIj48cmVjdCBjb2RlTGluZT0iMjciIGZpbGw9IiNGMUYxRjEiIGhlaWdodD0iOTIuOTUzMSIgaWQ9IkNhcmRUeXBlIiByeD0iMi41IiByeT0iMi41IiBzdHlsZT0ic3Ryb2tlOiMxODE4MTg7c3Ryb2tlLXdpZHRoOjAuNTsiIHdpZHRoPSIxMjAiIHg9IjU1Mi41IiB5PSIzNDcuNSIvPjxlbGxpcHNlIGN4PSI1ODEuOSIgY3k9IjM2My41IiBmaWxsPSIjQUREMUIyIiByeD0iMTEiIHJ5PSIxMSIgc3R5bGU9InN0cm9rZTojMTgxODE4O3N0cm9rZS13aWR0aDoxLjA7Ii8+PHBhdGggZD0iTTU3OS41MjUsMzY3Ljc1IEw1NzkuNTI1LDM2OS41IEw1ODQuNDYyNSwzNjkuNSBMNTg0LjQ2MjUsMzY3Ljc1IEw1NzkuNTI1LDM2Ny43NSBaIE01ODAuMjEyNSwzNjguNDM3NSBRNTgwLjIxMjUsMzY4LjQzNzUgNTgwLjIxMjUsMzU5LjI1IEw1NzguNDYyNSwzNTkuMjUgUTU3OC40NjI1LDM1OS4yNSA1NzguNDYyNSwzNjguNDM3NSBMNTgwLjIxMjUsMzY4LjQzNzUgWiBNNTgzLjc3NSwzNjguNDM3NSBMNTg1LjUyNSwzNjguNDM3NSBRNTg1LjUyNSwzNjguNDM3NSA1ODUuNTI1LDM2NS42MjUgTDU4My43NzUsMzY1LjYyNSBRNTgzLjc3NSwzNjUuNjI1IDU4My43NzUsMzY4LjQzNzUgWiBNNTgzLjc3NSwzNTkuMjUgUTU4My43NzUsMzU5LjI1IDU4My43NzUsMzYyLjA2MjUgTDU4NS41MjUsMzYyLjA2MjUgUTU4NS41MjUsMzYyLjA2MjUgNTg1LjUyNSwzNTkuMjUgTDU4My43NzUsMzU5LjI1IFogTTU3OS41MjUsMzU5LjkzNzUgTDU4NC40NjI1LDM1OS45Mzc1IEw1ODQuNDYyNSwzNTguMTg3NSBMNTc5LjUyNSwzNTguMTg3NSBMNTc5LjUyNSwzNTkuOTM3NSBaICIgZmlsbD0iIzAwMDAwMCIvPjx0ZXh0IGZpbGw9IiMwMDAwMDAiIGZvbnQtZmFtaWx5PSJzYW5zLXNlcmlmIiBmb250LXNpemU9IjE0IiBsZW5ndGhBZGp1c3Q9InNwYWNpbmciIHRleHRMZW5ndGg9IjU2IiB4PSI1OTkuMSIgeT0iMzY5LjI0MjIiPkNhcmRUeXBlPC90ZXh0PjxsaW5lIHN0eWxlPSJzdHJva2U6IzE4MTgxODtzdHJva2Utd2lkdGg6MC41OyIgeDE9IjU1My41IiB4Mj0iNjcxLjUiIHkxPSIzNzkuNSIgeTI9IjM3OS41Ii8+PHRleHQgZmlsbD0iIzAwMDAwMCIgZm9udC1mYW1pbHk9InNhbnMtc2VyaWYiIGZvbnQtc2l6ZT0iMTQiIGxlbmd0aEFkanVzdD0ic3BhY2luZyIgdGV4dExlbmd0aD0iOTQiIHg9IjU1OC41IiB5PSIzOTYuNzM0NCI+e2VudW19IFNJTFZFUjwvdGV4dD48dGV4dCBmaWxsPSIjMDAwMDAwIiBmb250LWZhbWlseT0ic2Fucy1zZXJpZiIgZm9udC1zaXplPSIxNCIgbGVuZ3RoQWRqdXN0PSJzcGFjaW5nIiB0ZXh0TGVuZ3RoPSI4MCIgeD0iNTU4LjUiIHk9IjQxMS43MTg4Ij57ZW51bX0gR09MRDwvdGV4dD48dGV4dCBmaWxsPSIjMDAwMDAwIiBmb250LWZhbWlseT0ic2Fucy1zZXJpZiIgZm9udC1zaXplPSIxNCIgbGVuZ3RoQWRqdXN0PSJzcGFjaW5nIiB0ZXh0TGVuZ3RoPSIxMDgiIHg9IjU1OC41IiB5PSI0MjYuNzAzMSI+e2VudW19IFBMQVRJTlVNPC90ZXh0PjxsaW5lIHN0eWxlPSJzdHJva2U6IzE4MTgxODtzdHJva2Utd2lkdGg6MC41OyIgeDE9IjU1My41IiB4Mj0iNjcxLjUiIHkxPSI0MzIuNDUzMSIgeTI9IjQzMi40NTMxIi8+PC9nPjwhLS1jbGFzcyBGaXRuZXNzQWNjZXNzQ29udHJvbC0tPjxnIGlkPSJlbGVtX0ZpdG5lc3NBY2Nlc3NDb250cm9sIj48cmVjdCBjb2RlTGluZT0iMzMiIGZpbGw9IiNGMUYxRjEiIGhlaWdodD0iMjU3Ljc4MTMiIGlkPSJGaXRuZXNzQWNjZXNzQ29udHJvbCIgcng9IjIuNSIgcnk9IjIuNSIgc3R5bGU9InN0cm9rZTojMTgxODE4O3N0cm9rZS13aWR0aDowLjU7IiB3aWR0aD0iMjY3IiB4PSI3IiB5PSI3Ii8+PGVsbGlwc2UgY3g9IjY2LjI1IiBjeT0iMjMiIGZpbGw9IiNBREQxQjIiIHJ4PSIxMSIgcnk9IjExIiBzdHlsZT0ic3Ryb2tlOiMxODE4MTg7c3Ryb2tlLXdpZHRoOjEuMDsiLz48cGF0aCBkPSJNNjMuODc1LDI3LjI1IEw2My44NzUsMjkgTDY4LjgxMjUsMjkgTDY4LjgxMjUsMjcuMjUgTDYzLjg3NSwyNy4yNSBaIE02NC41NjI1LDI3LjkzNzUgUTY0LjU2MjUsMjcuOTM3NSA2NC41NjI1LDE4Ljc1IEw2Mi44MTI1LDE4Ljc1IFE2Mi44MTI1LDE4Ljc1IDYyLjgxMjUsMjcuOTM3NSBMNjQuNTYyNSwyNy45Mzc1IFogTTY4LjEyNSwyNy45Mzc1IEw2OS44NzUsMjcuOTM3NSBRNjkuODc1LDI3LjkzNzUgNjkuODc1LDI1LjEyNSBMNjguMTI1LDI1LjEyNSBRNjguMTI1LDI1LjEyNSA2OC4xMjUsMjcuOTM3NSBaIE02OC4xMjUsMTguNzUgUTY4LjEyNSwxOC43NSA2OC4xMjUsMjEuNTYyNSBMNjkuODc1LDIxLjU2MjUgUTY5Ljg3NSwyMS41NjI1IDY5Ljg3NSwxOC43NSBMNjguMTI1LDE4Ljc1IFogTTYzLjg3NSwxOS40Mzc1IEw2OC44MTI1LDE5LjQzNzUgTDY4LjgxMjUsMTcuNjg3NSBMNjMuODc1LDE3LjY4NzUgTDYzLjg3NSwxOS40Mzc1IFogIiBmaWxsPSIjMDAwMDAwIi8+PHRleHQgZmlsbD0iIzAwMDAwMCIgZm9udC1mYW1pbHk9InNhbnMtc2VyaWYiIGZvbnQtc2l6ZT0iMTQiIGxlbmd0aEFkanVzdD0ic3BhY2luZyIgdGV4dExlbmd0aD0iMTQwIiB4PSI4Ni43NSIgeT0iMjguNzQyMiI+Rml0bmVzc0FjY2Vzc0NvbnRyb2w8L3RleHQ+PGxpbmUgc3R5bGU9InN0cm9rZTojMTgxODE4O3N0cm9rZS13aWR0aDowLjU7IiB4MT0iOCIgeDI9IjI3MyIgeTE9IjM5IiB5Mj0iMzkiLz48cmVjdCBmaWxsPSJub25lIiBoZWlnaHQ9IjYiIHN0eWxlPSJzdHJva2U6I0M4MjkzMDtzdHJva2Utd2lkdGg6MS4wOyIgd2lkdGg9IjYiIHg9IjE1IiB5PSI0OC45OTIyIi8+PHRleHQgZmlsbD0iIzAwMDAwMCIgZm9udC1mYW1pbHk9InNhbnMtc2VyaWYiIGZvbnQtc2l6ZT0iMTQiIGxlbmd0aEFkanVzdD0ic3BhY2luZyIgdGV4dExlbmd0aD0iMTU1IiB4PSIyNyIgeT0iNTYuMjM0NCI+SlRleHRGaWVsZCBjYXJkSWRGaWVsZDwvdGV4dD48cmVjdCBmaWxsPSJub25lIiBoZWlnaHQ9IjYiIHN0eWxlPSJzdHJva2U6I0M4MjkzMDtzdHJva2Utd2lkdGg6MS4wOyIgd2lkdGg9IjYiIHg9IjE1IiB5PSI2My45NzY2Ii8+PHRleHQgZmlsbD0iIzAwMDAwMCIgZm9udC1mYW1pbHk9InNhbnMtc2VyaWYiIGZvbnQtc2l6ZT0iMTQiIGxlbmd0aEFkanVzdD0ic3BhY2luZyIgdGV4dExlbmd0aD0iMTY5IiB4PSIyNyIgeT0iNzEuMjE4OCI+SlRleHRGaWVsZCBzdGFydERheUZpZWxkPC90ZXh0PjxyZWN0IGZpbGw9Im5vbmUiIGhlaWdodD0iNiIgc3R5bGU9InN0cm9rZTojQzgyOTMwO3N0cm9rZS13aWR0aDoxLjA7IiB3aWR0aD0iNiIgeD0iMTUiIHk9Ijc4Ljk2MDkiLz48dGV4dCBmaWxsPSIjMDAwMDAwIiBmb250LWZhbWlseT0ic2Fucy1zZXJpZiIgZm9udC1zaXplPSIxNCIgbGVuZ3RoQWRqdXN0PSJzcGFjaW5nIiB0ZXh0TGVuZ3RoPSIxNTUiIHg9IjI3IiB5PSI4Ni4yMDMxIj5KVGV4dEZpZWxkIGVuZERheUZpZWxkPC90ZXh0PjxyZWN0IGZpbGw9Im5vbmUiIGhlaWdodD0iNiIgc3R5bGU9InN0cm9rZTojQzgyOTMwO3N0cm9rZS13aWR0aDoxLjA7IiB3aWR0aD0iNiIgeD0iMTUiIHk9IjkzLjk0NTMiLz48dGV4dCBmaWxsPSIjMDAwMDAwIiBmb250LWZhbWlseT0ic2Fucy1zZXJpZiIgZm9udC1zaXplPSIxNCIgbGVuZ3RoQWRqdXN0PSJzcGFjaW5nIiB0ZXh0TGVuZ3RoPSIxNzciIHg9IjI3IiB5PSIxMDEuMTg3NSI+SlRleHRGaWVsZCBzdGFydFRpbWVGaWVsZDwvdGV4dD48cmVjdCBmaWxsPSJub25lIiBoZWlnaHQ9IjYiIHN0eWxlPSJzdHJva2U6I0M4MjkzMDtzdHJva2Utd2lkdGg6MS4wOyIgd2lkdGg9IjYiIHg9IjE1IiB5PSIxMDguOTI5NyIvPjx0ZXh0IGZpbGw9IiMwMDAwMDAiIGZvbnQtZmFtaWx5PSJzYW5zLXNlcmlmIiBmb250LXNpemU9IjE0IiBsZW5ndGhBZGp1c3Q9InNwYWNpbmciIHRleHRMZW5ndGg9IjE2MyIgeD0iMjciIHk9IjExNi4xNzE5Ij5KVGV4dEZpZWxkIGVuZFRpbWVGaWVsZDwvdGV4dD48cmVjdCBmaWxsPSJub25lIiBoZWlnaHQ9IjYiIHN0eWxlPSJzdHJva2U6I0M4MjkzMDtzdHJva2Utd2lkdGg6MS4wOyIgd2lkdGg9IjYiIHg9IjE1IiB5PSIxMjMuOTE0MSIvPjx0ZXh0IGZpbGw9IiMwMDAwMDAiIGZvbnQtZmFtaWx5PSJzYW5zLXNlcmlmIiBmb250LXNpemU9IjE0IiBsZW5ndGhBZGp1c3Q9InNwYWNpbmciIHRleHRMZW5ndGg9IjEyMCIgeD0iMjciIHk9IjEzMS4xNTYzIj5KVGV4dEFyZWEgbG9nQXJlYTwvdGV4dD48cmVjdCBmaWxsPSJub25lIiBoZWlnaHQ9IjYiIHN0eWxlPSJzdHJva2U6I0M4MjkzMDtzdHJva2Utd2lkdGg6MS4wOyIgd2lkdGg9IjYiIHg9IjE1IiB5PSIxMzguODk4NCIvPjx0ZXh0IGZpbGw9IiMwMDAwMDAiIGZvbnQtZmFtaWx5PSJzYW5zLXNlcmlmIiBmb250LXNpemU9IjE0IiBsZW5ndGhBZGp1c3Q9InNwYWNpbmciIHRleHRMZW5ndGg9IjI0MSIgeD0iMjciIHk9IjE0Ni4xNDA2Ij5KQ29tYm9Cb3gmbHQ7U3RyaW5nJmd0OyBjYXJkVHlwZUNvbWJvQm94PC90ZXh0PjxyZWN0IGZpbGw9Im5vbmUiIGhlaWdodD0iNiIgc3R5bGU9InN0cm9rZTojQzgyOTMwO3N0cm9rZS13aWR0aDoxLjA7IiB3aWR0aD0iNiIgeD0iMTUiIHk9IjE1My44ODI4Ii8+PHRleHQgZmlsbD0iIzAwMDAwMCIgZm9udC1mYW1pbHk9InNhbnMtc2VyaWYiIGZvbnQtc2l6ZT0iMTQiIGxlbmd0aEFkanVzdD0ic3BhY2luZyIgdGV4dExlbmd0aD0iMTYxIiB4PSIyNyIgeT0iMTYxLjEyNSI+Q2FyZE1hbmFnZXIgY2FyZE1hbmFnZXI8L3RleHQ+PGxpbmUgc3R5bGU9InN0cm9rZTojMTgxODE4O3N0cm9rZS13aWR0aDowLjU7IiB4MT0iOCIgeDI9IjI3MyIgeTE9IjE2Ni44NzUiIHkyPSIxNjYuODc1Ii8+PGVsbGlwc2UgY3g9IjE4IiBjeT0iMTc5Ljg2NzIiIGZpbGw9IiM4NEJFODQiIHJ4PSIzIiByeT0iMyIgc3R5bGU9InN0cm9rZTojMDM4MDQ4O3N0cm9rZS13aWR0aDoxLjA7Ii8+PHRleHQgZmlsbD0iIzAwMDAwMCIgZm9udC1mYW1pbHk9InNhbnMtc2VyaWYiIGZvbnQtc2l6ZT0iMTQiIGxlbmd0aEFkanVzdD0ic3BhY2luZyIgdGV4dExlbmd0aD0iMTU2IiB4PSIyNyIgeT0iMTg0LjEwOTQiPkZpdG5lc3NBY2Nlc3NDb250cm9sKCk8L3RleHQ+PGVsbGlwc2UgY3g9IjE4IiBjeT0iMTk0Ljg1MTYiIGZpbGw9IiM4NEJFODQiIHJ4PSIzIiByeT0iMyIgc3R5bGU9InN0cm9rZTojMDM4MDQ4O3N0cm9rZS13aWR0aDoxLjA7Ii8+PHRleHQgZmlsbD0iIzAwMDAwMCIgZm9udC1mYW1pbHk9InNhbnMtc2VyaWYiIGZvbnQtc2l6ZT0iMTQiIGxlbmd0aEFkanVzdD0ic3BhY2luZyIgdGV4dExlbmd0aD0iMTAwIiB4PSIyNyIgeT0iMTk5LjA5MzgiPnZvaWQgYWRkQ2FyZCgpPC90ZXh0PjxlbGxpcHNlIGN4PSIxOCIgY3k9IjIwOS44MzU5IiBmaWxsPSIjODRCRTg0IiByeD0iMyIgcnk9IjMiIHN0eWxlPSJzdHJva2U6IzAzODA0ODtzdHJva2Utd2lkdGg6MS4wOyIvPjx0ZXh0IGZpbGw9IiMwMDAwMDAiIGZvbnQtZmFtaWx5PSJzYW5zLXNlcmlmIiBmb250LXNpemU9IjE0IiBsZW5ndGhBZGp1c3Q9InNwYWNpbmciIHRleHRMZW5ndGg9IjEyMiIgeD0iMjciIHk9IjIxNC4wNzgxIj52b2lkIG1vZGlmeUNhcmQoKTwvdGV4dD48ZWxsaXBzZSBjeD0iMTgiIGN5PSIyMjQuODIwMyIgZmlsbD0iIzg0QkU4NCIgcng9IjMiIHJ5PSIzIiBzdHlsZT0ic3Ryb2tlOiMwMzgwNDg7c3Ryb2tlLXdpZHRoOjEuMDsiLz48dGV4dCBmaWxsPSIjMDAwMDAwIiBmb250LWZhbWlseT0ic2Fucy1zZXJpZiIgZm9udC1zaXplPSIxNCIgbGVuZ3RoQWRqdXN0PSJzcGFjaW5nIiB0ZXh0TGVuZ3RoPSIxMjEiIHg9IjI3IiB5PSIyMjkuMDYyNSI+dm9pZCByZXZva2VDYXJkKCk8L3RleHQ+PGVsbGlwc2UgY3g9IjE4IiBjeT0iMjM5LjgwNDciIGZpbGw9IiM4NEJFODQiIHJ4PSIzIiByeT0iMyIgc3R5bGU9InN0cm9rZTojMDM4MDQ4O3N0cm9rZS13aWR0aDoxLjA7Ii8+PHRleHQgZmlsbD0iIzAwMDAwMCIgZm9udC1mYW1pbHk9InNhbnMtc2VyaWYiIGZvbnQtc2l6ZT0iMTQiIGxlbmd0aEFkanVzdD0ic3BhY2luZyIgdGV4dExlbmd0aD0iMTI4IiB4PSIyNyIgeT0iMjQ0LjA0NjkiPnZvaWQgY2hlY2tBY2Nlc3MoKTwvdGV4dD48ZWxsaXBzZSBjeD0iMTgiIGN5PSIyNTQuNzg5MSIgZmlsbD0iIzg0QkU4NCIgcng9IjMiIHJ5PSIzIiBzdHlsZT0ic3Ryb2tlOiMwMzgwNDg7c3Ryb2tlLXdpZHRoOjEuMDsiLz48dGV4dCBmaWxsPSIjMDAwMDAwIiBmb250LWZhbWlseT0ic2Fucy1zZXJpZiIgZm9udC1zaXplPSIxNCIgbGVuZ3RoQWRqdXN0PSJzcGFjaW5nIiB0ZXh0TGVuZ3RoPSIxMTUiIHg9IjI3IiB5PSIyNTkuMDMxMyI+dm9pZCBzaG93Q2FyZHMoKTwvdGV4dD48L2c+PCEtLWxpbmsgQWNjZXNzQ2FyZCB0byBDYXJkTWFuYWdlci0tPjxnIGlkPSJsaW5rX0FjY2Vzc0NhcmRfQ2FyZE1hbmFnZXIiPjxwYXRoIGNvZGVMaW5lPSI1MCIgZD0iTTQzOS4wOSwyNjUuMzcgQzQzMC40OSwyODUuOTYgNDIyLjM0LDMwNi41MyA0MTUuNTIsMzI0Ljk2ICIgZmlsbD0ibm9uZSIgaWQ9IkFjY2Vzc0NhcmQtQ2FyZE1hbmFnZXIiIHN0eWxlPSJzdHJva2U6IzE4MTgxODtzdHJva2Utd2lkdGg6MS4wOyIvPjx0ZXh0IGZpbGw9IiMwMDAwMDAiIGZvbnQtZmFtaWx5PSJzYW5zLXNlcmlmIiBmb250LXNpemU9IjEzIiBsZW5ndGhBZGp1c3Q9InNwYWNpbmciIHRleHRMZW5ndGg9IjciIHg9IjQyOC4yNjY4IiB5PSIyODUuMTIwNCI+MTwvdGV4dD48dGV4dCBmaWxsPSIjMDAwMDAwIiBmb250LWZhbWlseT0ic2Fucy1zZXJpZiIgZm9udC1zaXplPSIxMyIgbGVuZ3RoQWRqdXN0PSJzcGFjaW5nIiB0ZXh0TGVuZ3RoPSI2IiB4PSI0MTEuMTQxMSIgeT0iMzE1LjU3MyI+KjwvdGV4dD48L2c+PCEtLWxpbmsgQ2FyZE1hbmFnZXIgdG8gQWNjZXNzQ2FyZC0tPjxnIGlkPSJsaW5rX0NhcmRNYW5hZ2VyX0FjY2Vzc0NhcmQiPjxwYXRoIGNvZGVMaW5lPSI1MSIgZD0iTTQzOS4wMiwzMjQuOTYgQzQ0Ny42NiwzMDYuNTMgNDU2LjczLDI4NS45NiA0NjUuMzQsMjY1LjM3ICIgZmlsbD0ibm9uZSIgaWQ9IkNhcmRNYW5hZ2VyLUFjY2Vzc0NhcmQiIHN0eWxlPSJzdHJva2U6IzE4MTgxODtzdHJva2Utd2lkdGg6MS4wOyIvPjx0ZXh0IGZpbGw9IiMwMDAwMDAiIGZvbnQtZmFtaWx5PSJzYW5zLXNlcmlmIiBmb250LXNpemU9IjEzIiBsZW5ndGhBZGp1c3Q9InNwYWNpbmciIHRleHRMZW5ndGg9IjciIHg9IjQzNi4zMDA0IiB5PSIzMTUuNTczIj4xPC90ZXh0Pjx0ZXh0IGZpbGw9IiMwMDAwMDAiIGZvbnQtZmFtaWx5PSJzYW5zLXNlcmlmIiBmb250LXNpemU9IjEzIiBsZW5ndGhBZGp1c3Q9InNwYWNpbmciIHRleHRMZW5ndGg9IjYiIHg9IjQ1Ni45Nzk3IiB5PSIyODUuMTIwNCI+KjwvdGV4dD48L2c+PCEtLWxpbmsgQWNjZXNzQ2FyZCB0byBDYXJkVHlwZS0tPjxnIGlkPSJsaW5rX0FjY2Vzc0NhcmRfQ2FyZFR5cGUiPjxwYXRoIGNvZGVMaW5lPSI1MiIgZD0iTTU1OS4xNiwyNjUuMzcgQzU3MS40NiwyOTQuODIgNTgzLjc2LDMyNC4yMyA1OTMuNDQsMzQ3LjM5ICIgZmlsbD0ibm9uZSIgaWQ9IkFjY2Vzc0NhcmQtQ2FyZFR5cGUiIHN0eWxlPSJzdHJva2U6IzE4MTgxODtzdHJva2Utd2lkdGg6MS4wOyIvPjx0ZXh0IGZpbGw9IiMwMDAwMDAiIGZvbnQtZmFtaWx5PSJzYW5zLXNlcmlmIiBmb250LXNpemU9IjEzIiBsZW5ndGhBZGp1c3Q9InNwYWNpbmciIHRleHRMZW5ndGg9IjciIHg9IjU1NC45MDMxIiB5PSIyODUuMTIwNCI+MTwvdGV4dD48dGV4dCBmaWxsPSIjMDAwMDAwIiBmb250LWZhbWlseT0ic2Fucy1zZXJpZiIgZm9udC1zaXplPSIxMyIgbGVuZ3RoQWRqdXN0PSJzcGFjaW5nIiB0ZXh0TGVuZ3RoPSI3IiB4PSI1ODIuNzAzNSIgeT0iMzM3Ljk2MjMiPjE8L3RleHQ+PC9nPjwhLS1saW5rIEZpdG5lc3NBY2Nlc3NDb250cm9sIHRvIENhcmRNYW5hZ2VyLS0+PGcgaWQ9ImxpbmtfRml0bmVzc0FjY2Vzc0NvbnRyb2xfQ2FyZE1hbmFnZXIiPjxwYXRoIGNvZGVMaW5lPSI1MyIgZD0iTTI2OS44OCwyNjUuMzcgQzI5MC42MiwyODUuOTYgMzExLjM2LDMwNi41MyAzMjkuOTMsMzI0Ljk2ICIgZmlsbD0ibm9uZSIgaWQ9IkZpdG5lc3NBY2Nlc3NDb250cm9sLUNhcmRNYW5hZ2VyIiBzdHlsZT0ic3Ryb2tlOiMxODE4MTg7c3Ryb2tlLXdpZHRoOjEuMDsiLz48dGV4dCBmaWxsPSIjMDAwMDAwIiBmb250LWZhbWlseT0ic2Fucy1zZXJpZiIgZm9udC1zaXplPSIxMyIgbGVuZ3RoQWRqdXN0PSJzcGFjaW5nIiB0ZXh0TGVuZ3RoPSI3IiB4PSIyNjkuNzY0MSIgeT0iMjg1LjEyMDQiPjE8L3RleHQ+PHRleHQgZmlsbD0iIzAwMDAwMCIgZm9udC1mYW1pbHk9InNhbnMtc2VyaWYiIGZvbnQtc2l6ZT0iMTMiIGxlbmd0aEFkanVzdD0ic3BhY2luZyIgdGV4dExlbmd0aD0iNyIgeD0iMzE0LjU5NjkiIHk9IjMxNS41NzMiPjE8L3RleHQ+PC9nPjwhLS1TUkM9W1ZMRkJLZUNtNUR0cDVIYk1MRXQyVlFTcE0xekoxbi1ack5yQ2haSEpJOW1hS1prVF9oazQxMFdHUEc3WHRGU3ZEd0owSWc2SzQ1MWdYSUw1bm1aTHBub3pRaWJ1WmFZRGhRZDM2RFQ4UUlwckRKdnU0NzNRMG93a1NUa200ZVBteEplNUpPdER1U2tZdnJ1cFlOTXVDNU5TZ3FNNnR2YUJUR2JwcUFrY3hvSGlDQ0t3S29LT0hTZXAzNUQtMjU0MHZlV2ZzclRRNTY4RkRGNnc2TVVvWml5V2NOMS1XVFI3LUdkY0RZdzMyZWVhRTlTTXpiM3RWZWVZcWFYZHNkeDA3RVNXRS1xb2ZsSVlmdDdQQ0FuU0JZeldvMDZjajI2ejN2bkQ1NmFQSjBBSklvWDUxRzdoZjlxd0lLc1pFUWxuQTRPMUR5U0gtN1R2R2dfaHhGdGNuS1ZrZGg5aF9feXZJcFZobnhVN0ZqQ2pxem5lUE1pQWhnS2VFZFJrRF8yWlJuYUtyNnJ0U3Z1UXNxdF9tc290X2h6T2ktYl8xbVVqZ0dJQzJmNlJSdWtsSEZhWGhpSkZtaEF3eEV2QlF0MkVfWVFHX2tuNDI1NElyZHkwYmVBb3B5Q0ticjI5N0tubmlXTW9pcUw2RHNtaHpmeFl0YWg1YnA2UXByNXk1bGlaSEZ1dWRhaVY2Q2ZuNk5UUjUwTU5PRUplMmxtMl0tLT48L2c+PC9zdmc+;" parent="1" vertex="1">
            <mxGeometry x="-760" y="20" width="649.13" height="430" as="geometry" />
          </mxCell>
        </UserObject>
        <UserObject label="" plantUmlData="{&#xa;  &quot;data&quot;: &quot;@startuml\n\n&#39; AccessCard class\nclass AccessCard {\n    - cardId: String\n    - startDay: int\n    - endDay: int\n    - startTime: String\n    - endTime: String\n    - cardType: String\n    + AccessCard(cardId: String, startDay: int, endDay: int, startTime: String, endTime: String, cardType: String)\n    + getCardId(): String\n    + getCardType(): String\n    + setCardType(cardType: String)\n    + isAccessAllowed(currentDay: int, currentTime: String): boolean\n    + setAccessPeriod(startDay: int, endDay: int, startTime: String, endTime: String)\n    + canAccessLevel(level: String): boolean\n    + toString(): String\n}\n\n&#39; CardManager class\nclass CardManager {\n    - cards: List&lt;AccessCard&gt;\n    + CardManager()\n    + addCard(card: AccessCard)\n    + getCard(cardId: String): AccessCard\n    + removeCard(cardId: String)\n    + getAllCards(): List&lt;AccessCard&gt;\n}\n\n&#39; FitnessAccessControl class\nclass FitnessAccessControl {\n    - cardIdField: JTextField\n    - startDayField: JTextField\n    - endDayField: JTextField\n    - startTimeField: JTextField\n    - endTimeField: JTextField\n    - logArea: JTextArea\n    - cardTypeComboBox: JComboBox&lt;String&gt;\n    - cardManager: CardManager\n    + FitnessAccessControl()\n    + addCard(): void\n    + modifyCard(): void\n    + revokeCard(): void\n    + checkAccess(): void\n    + showCards(): void\n}\n\n&#39; Main class\nclass Main {\n    + main(args: String[]): void\n}\n\n&#39; SecurityModule class (abstract)\nabstract class SecurityModule {\n    - moduleName: String\n    + SecurityModule(moduleName: String)\n    + activate(): void\n    + showModuleInfo(): void\n}\n\n&#39; SingletonPattern class\nclass SingletonPattern {\n    - instance: SingletonPattern\n    + SingletonPattern()\n    + getInstance(): SingletonPattern\n}\n\n&#39; CardType enum\nenum CardType {\n    SILVER\n    GOLD\n    PLATINUM\n}\n\n&#39; Relationships\nAccessCard --&gt; CardManager : \&quot;uses\&quot;\nFitnessAccessControl --&gt; CardManager : \&quot;manages\&quot;\nMain --&gt; FitnessAccessControl : \&quot;runs\&quot;\nFitnessAccessControl --&gt; AccessCard : \&quot;interacts with\&quot;\nSecurityModule &lt;|-- SingletonPattern : \&quot;singleton\&quot;\nFitnessAccessControl --&gt; CardType : \&quot;uses\&quot;\n\n@enduml\n&quot;,&#xa;  &quot;format&quot;: &quot;svg&quot;&#xa;}" id="_ZW5KOhFlhJs26pVEUaq-1">
          <mxCell style="shape=image;noLabel=1;verticalAlign=top;aspect=fixed;imageAspect=0;image=data:image/svg+xml,PD94bWwgdmVyc2lvbj0iMS4wIiBlbmNvZGluZz0idXMtYXNjaWkiIHN0YW5kYWxvbmU9Im5vIj8+PHN2ZyB4bWxucz0iaHR0cDovL3d3dy53My5vcmcvMjAwMC9zdmciIHhtbG5zOnhsaW5rPSJodHRwOi8vd3d3LnczLm9yZy8xOTk5L3hsaW5rIiBjb250ZW50U3R5bGVUeXBlPSJ0ZXh0L2NzcyIgaGVpZ2h0PSIxMDAwcHgiIHByZXNlcnZlQXNwZWN0UmF0aW89Im5vbmUiIHN0eWxlPSJ3aWR0aDoxMjk5cHg7aGVpZ2h0OjEwMDBweDtiYWNrZ3JvdW5kOiNGRkZGRkY7IiB2ZXJzaW9uPSIxLjEiIHZpZXdCb3g9IjAgMCAxMjk5IDEwMDAiIHdpZHRoPSIxMjk5cHgiIHpvb21BbmRQYW49Im1hZ25pZnkiPjxkZWZzLz48Zz48IS0tY2xhc3MgQWNjZXNzQ2FyZC0tPjxnIGlkPSJlbGVtX0FjY2Vzc0NhcmQiPjxyZWN0IGNvZGVMaW5lPSIyIiBmaWxsPSIjRjFGMUYxIiBoZWlnaHQ9IjI1Ny43ODEzIiBpZD0iQWNjZXNzQ2FyZCIgcng9IjIuNSIgcnk9IjIuNSIgc3R5bGU9InN0cm9rZTojMTgxODE4O3N0cm9rZS13aWR0aDowLjU7IiB3aWR0aD0iNzg2IiB4PSI3IiB5PSI1MjMiLz48ZWxsaXBzZSBjeD0iMzYwLjc1IiBjeT0iNTM5IiBmaWxsPSIjQUREMUIyIiByeD0iMTEiIHJ5PSIxMSIgc3R5bGU9InN0cm9rZTojMTgxODE4O3N0cm9rZS13aWR0aDoxLjA7Ii8+PHBhdGggZD0iTTM1OC4zNzUsNTQzLjI1IEwzNTguMzc1LDU0NSBMMzYzLjMxMjUsNTQ1IEwzNjMuMzEyNSw1NDMuMjUgTDM1OC4zNzUsNTQzLjI1IFogTTM1OS4wNjI1LDU0My45Mzc1IFEzNTkuMDYyNSw1NDMuOTM3NSAzNTkuMDYyNSw1MzQuNzUgTDM1Ny4zMTI1LDUzNC43NSBRMzU3LjMxMjUsNTM0Ljc1IDM1Ny4zMTI1LDU0My45Mzc1IEwzNTkuMDYyNSw1NDMuOTM3NSBaIE0zNjIuNjI1LDU0My45Mzc1IEwzNjQuMzc1LDU0My45Mzc1IFEzNjQuMzc1LDU0My45Mzc1IDM2NC4zNzUsNTQxLjEyNSBMMzYyLjYyNSw1NDEuMTI1IFEzNjIuNjI1LDU0MS4xMjUgMzYyLjYyNSw1NDMuOTM3NSBaIE0zNjIuNjI1LDUzNC43NSBRMzYyLjYyNSw1MzQuNzUgMzYyLjYyNSw1MzcuNTYyNSBMMzY0LjM3NSw1MzcuNTYyNSBRMzY0LjM3NSw1MzcuNTYyNSAzNjQuMzc1LDUzNC43NSBMMzYyLjYyNSw1MzQuNzUgWiBNMzU4LjM3NSw1MzUuNDM3NSBMMzYzLjMxMjUsNTM1LjQzNzUgTDM2My4zMTI1LDUzMy42ODc1IEwzNTguMzc1LDUzMy42ODc1IEwzNTguMzc1LDUzNS40Mzc1IFogIiBmaWxsPSIjMDAwMDAwIi8+PHRleHQgZmlsbD0iIzAwMDAwMCIgZm9udC1mYW1pbHk9InNhbnMtc2VyaWYiIGZvbnQtc2l6ZT0iMTQiIGxlbmd0aEFkanVzdD0ic3BhY2luZyIgdGV4dExlbmd0aD0iNzAiIHg9IjM4MS4yNSIgeT0iNTQ0Ljc0MjIiPkFjY2Vzc0NhcmQ8L3RleHQ+PGxpbmUgc3R5bGU9InN0cm9rZTojMTgxODE4O3N0cm9rZS13aWR0aDowLjU7IiB4MT0iOCIgeDI9Ijc5MiIgeTE9IjU1NSIgeTI9IjU1NSIvPjxyZWN0IGZpbGw9Im5vbmUiIGhlaWdodD0iNiIgc3R5bGU9InN0cm9rZTojQzgyOTMwO3N0cm9rZS13aWR0aDoxLjA7IiB3aWR0aD0iNiIgeD0iMTUiIHk9IjU2NC45OTIyIi8+PHRleHQgZmlsbD0iIzAwMDAwMCIgZm9udC1mYW1pbHk9InNhbnMtc2VyaWYiIGZvbnQtc2l6ZT0iMTQiIGxlbmd0aEFkanVzdD0ic3BhY2luZyIgdGV4dExlbmd0aD0iOTgiIHg9IjI3IiB5PSI1NzIuMjM0NCI+Y2FyZElkOiBTdHJpbmc8L3RleHQ+PHJlY3QgZmlsbD0ibm9uZSIgaGVpZ2h0PSI2IiBzdHlsZT0ic3Ryb2tlOiNDODI5MzA7c3Ryb2tlLXdpZHRoOjEuMDsiIHdpZHRoPSI2IiB4PSIxNSIgeT0iNTc5Ljk3NjYiLz48dGV4dCBmaWxsPSIjMDAwMDAwIiBmb250LWZhbWlseT0ic2Fucy1zZXJpZiIgZm9udC1zaXplPSIxNCIgbGVuZ3RoQWRqdXN0PSJzcGFjaW5nIiB0ZXh0TGVuZ3RoPSI5MSIgeD0iMjciIHk9IjU4Ny4yMTg4Ij5zdGFydERheTogaW50PC90ZXh0PjxyZWN0IGZpbGw9Im5vbmUiIGhlaWdodD0iNiIgc3R5bGU9InN0cm9rZTojQzgyOTMwO3N0cm9rZS13aWR0aDoxLjA7IiB3aWR0aD0iNiIgeD0iMTUiIHk9IjU5NC45NjA5Ii8+PHRleHQgZmlsbD0iIzAwMDAwMCIgZm9udC1mYW1pbHk9InNhbnMtc2VyaWYiIGZvbnQtc2l6ZT0iMTQiIGxlbmd0aEFkanVzdD0ic3BhY2luZyIgdGV4dExlbmd0aD0iNzciIHg9IjI3IiB5PSI2MDIuMjAzMSI+ZW5kRGF5OiBpbnQ8L3RleHQ+PHJlY3QgZmlsbD0ibm9uZSIgaGVpZ2h0PSI2IiBzdHlsZT0ic3Ryb2tlOiNDODI5MzA7c3Ryb2tlLXdpZHRoOjEuMDsiIHdpZHRoPSI2IiB4PSIxNSIgeT0iNjA5Ljk0NTMiLz48dGV4dCBmaWxsPSIjMDAwMDAwIiBmb250LWZhbWlseT0ic2Fucy1zZXJpZiIgZm9udC1zaXplPSIxNCIgbGVuZ3RoQWRqdXN0PSJzcGFjaW5nIiB0ZXh0TGVuZ3RoPSIxMjAiIHg9IjI3IiB5PSI2MTcuMTg3NSI+c3RhcnRUaW1lOiBTdHJpbmc8L3RleHQ+PHJlY3QgZmlsbD0ibm9uZSIgaGVpZ2h0PSI2IiBzdHlsZT0ic3Ryb2tlOiNDODI5MzA7c3Ryb2tlLXdpZHRoOjEuMDsiIHdpZHRoPSI2IiB4PSIxNSIgeT0iNjI0LjkyOTciLz48dGV4dCBmaWxsPSIjMDAwMDAwIiBmb250LWZhbWlseT0ic2Fucy1zZXJpZiIgZm9udC1zaXplPSIxNCIgbGVuZ3RoQWRqdXN0PSJzcGFjaW5nIiB0ZXh0TGVuZ3RoPSIxMDYiIHg9IjI3IiB5PSI2MzIuMTcxOSI+ZW5kVGltZTogU3RyaW5nPC90ZXh0PjxyZWN0IGZpbGw9Im5vbmUiIGhlaWdodD0iNiIgc3R5bGU9InN0cm9rZTojQzgyOTMwO3N0cm9rZS13aWR0aDoxLjA7IiB3aWR0aD0iNiIgeD0iMTUiIHk9IjYzOS45MTQxIi8+PHRleHQgZmlsbD0iIzAwMDAwMCIgZm9udC1mYW1pbHk9InNhbnMtc2VyaWYiIGZvbnQtc2l6ZT0iMTQiIGxlbmd0aEFkanVzdD0ic3BhY2luZyIgdGV4dExlbmd0aD0iMTEyIiB4PSIyNyIgeT0iNjQ3LjE1NjMiPmNhcmRUeXBlOiBTdHJpbmc8L3RleHQ+PGxpbmUgc3R5bGU9InN0cm9rZTojMTgxODE4O3N0cm9rZS13aWR0aDowLjU7IiB4MT0iOCIgeDI9Ijc5MiIgeTE9IjY1Mi45MDYzIiB5Mj0iNjUyLjkwNjMiLz48ZWxsaXBzZSBjeD0iMTgiIGN5PSI2NjUuODk4NCIgZmlsbD0iIzg0QkU4NCIgcng9IjMiIHJ5PSIzIiBzdHlsZT0ic3Ryb2tlOiMwMzgwNDg7c3Ryb2tlLXdpZHRoOjEuMDsiLz48dGV4dCBmaWxsPSIjMDAwMDAwIiBmb250LWZhbWlseT0ic2Fucy1zZXJpZiIgZm9udC1zaXplPSIxNCIgbGVuZ3RoQWRqdXN0PSJzcGFjaW5nIiB0ZXh0TGVuZ3RoPSI3NjAiIHg9IjI3IiB5PSI2NzAuMTQwNiI+QWNjZXNzQ2FyZChjYXJkSWQ6IFN0cmluZywgc3RhcnREYXk6IGludCwgZW5kRGF5OiBpbnQsIHN0YXJ0VGltZTogU3RyaW5nLCBlbmRUaW1lOiBTdHJpbmcsIGNhcmRUeXBlOiBTdHJpbmcpPC90ZXh0PjxlbGxpcHNlIGN4PSIxOCIgY3k9IjY4MC44ODI4IiBmaWxsPSIjODRCRTg0IiByeD0iMyIgcnk9IjMiIHN0eWxlPSJzdHJva2U6IzAzODA0ODtzdHJva2Utd2lkdGg6MS4wOyIvPjx0ZXh0IGZpbGw9IiMwMDAwMDAiIGZvbnQtZmFtaWx5PSJzYW5zLXNlcmlmIiBmb250LXNpemU9IjE0IiBsZW5ndGhBZGp1c3Q9InNwYWNpbmciIHRleHRMZW5ndGg9IjEzNSIgeD0iMjciIHk9IjY4NS4xMjUiPmdldENhcmRJZCgpOiBTdHJpbmc8L3RleHQ+PGVsbGlwc2UgY3g9IjE4IiBjeT0iNjk1Ljg2NzIiIGZpbGw9IiM4NEJFODQiIHJ4PSIzIiByeT0iMyIgc3R5bGU9InN0cm9rZTojMDM4MDQ4O3N0cm9rZS13aWR0aDoxLjA7Ii8+PHRleHQgZmlsbD0iIzAwMDAwMCIgZm9udC1mYW1pbHk9InNhbnMtc2VyaWYiIGZvbnQtc2l6ZT0iMTQiIGxlbmd0aEFkanVzdD0ic3BhY2luZyIgdGV4dExlbmd0aD0iMTQ5IiB4PSIyNyIgeT0iNzAwLjEwOTQiPmdldENhcmRUeXBlKCk6IFN0cmluZzwvdGV4dD48ZWxsaXBzZSBjeD0iMTgiIGN5PSI3MTAuODUxNiIgZmlsbD0iIzg0QkU4NCIgcng9IjMiIHJ5PSIzIiBzdHlsZT0ic3Ryb2tlOiMwMzgwNDg7c3Ryb2tlLXdpZHRoOjEuMDsiLz48dGV4dCBmaWxsPSIjMDAwMDAwIiBmb250LWZhbWlseT0ic2Fucy1zZXJpZiIgZm9udC1zaXplPSIxNCIgbGVuZ3RoQWRqdXN0PSJzcGFjaW5nIiB0ZXh0TGVuZ3RoPSIyMDUiIHg9IjI3IiB5PSI3MTUuMDkzOCI+c2V0Q2FyZFR5cGUoY2FyZFR5cGU6IFN0cmluZyk8L3RleHQ+PGVsbGlwc2UgY3g9IjE4IiBjeT0iNzI1LjgzNTkiIGZpbGw9IiM4NEJFODQiIHJ4PSIzIiByeT0iMyIgc3R5bGU9InN0cm9rZTojMDM4MDQ4O3N0cm9rZS13aWR0aDoxLjA7Ii8+PHRleHQgZmlsbD0iIzAwMDAwMCIgZm9udC1mYW1pbHk9InNhbnMtc2VyaWYiIGZvbnQtc2l6ZT0iMTQiIGxlbmd0aEFkanVzdD0ic3BhY2luZyIgdGV4dExlbmd0aD0iNDM4IiB4PSIyNyIgeT0iNzMwLjA3ODEiPmlzQWNjZXNzQWxsb3dlZChjdXJyZW50RGF5OiBpbnQsIGN1cnJlbnRUaW1lOiBTdHJpbmcpOiBib29sZWFuPC90ZXh0PjxlbGxpcHNlIGN4PSIxOCIgY3k9Ijc0MC44MjAzIiBmaWxsPSIjODRCRTg0IiByeD0iMyIgcnk9IjMiIHN0eWxlPSJzdHJva2U6IzAzODA0ODtzdHJva2Utd2lkdGg6MS4wOyIvPjx0ZXh0IGZpbGw9IiMwMDAwMDAiIGZvbnQtZmFtaWx5PSJzYW5zLXNlcmlmIiBmb250LXNpemU9IjE0IiBsZW5ndGhBZGp1c3Q9InNwYWNpbmciIHRleHRMZW5ndGg9IjU1NyIgeD0iMjciIHk9Ijc0NS4wNjI1Ij5zZXRBY2Nlc3NQZXJpb2Qoc3RhcnREYXk6IGludCwgZW5kRGF5OiBpbnQsIHN0YXJ0VGltZTogU3RyaW5nLCBlbmRUaW1lOiBTdHJpbmcpPC90ZXh0PjxlbGxpcHNlIGN4PSIxOCIgY3k9Ijc1NS44MDQ3IiBmaWxsPSIjODRCRTg0IiByeD0iMyIgcnk9IjMiIHN0eWxlPSJzdHJva2U6IzAzODA0ODtzdHJva2Utd2lkdGg6MS4wOyIvPjx0ZXh0IGZpbGw9IiMwMDAwMDAiIGZvbnQtZmFtaWx5PSJzYW5zLXNlcmlmIiBmb250LXNpemU9IjE0IiBsZW5ndGhBZGp1c3Q9InNwYWNpbmciIHRleHRMZW5ndGg9IjI2OCIgeD0iMjciIHk9Ijc2MC4wNDY5Ij5jYW5BY2Nlc3NMZXZlbChsZXZlbDogU3RyaW5nKTogYm9vbGVhbjwvdGV4dD48ZWxsaXBzZSBjeD0iMTgiIGN5PSI3NzAuNzg5MSIgZmlsbD0iIzg0QkU4NCIgcng9IjMiIHJ5PSIzIiBzdHlsZT0ic3Ryb2tlOiMwMzgwNDg7c3Ryb2tlLXdpZHRoOjEuMDsiLz48dGV4dCBmaWxsPSIjMDAwMDAwIiBmb250LWZhbWlseT0ic2Fucy1zZXJpZiIgZm9udC1zaXplPSIxNCIgbGVuZ3RoQWRqdXN0PSJzcGFjaW5nIiB0ZXh0TGVuZ3RoPSIxMjgiIHg9IjI3IiB5PSI3NzUuMDMxMyI+dG9TdHJpbmcoKTogU3RyaW5nPC90ZXh0PjwvZz48IS0tY2xhc3MgQ2FyZE1hbmFnZXItLT48ZyBpZD0iZWxlbV9DYXJkTWFuYWdlciI+PHJlY3QgY29kZUxpbmU9IjIwIiBmaWxsPSIjRjFGMUYxIiBoZWlnaHQ9IjEzNy45MDYzIiBpZD0iQ2FyZE1hbmFnZXIiIHJ4PSIyLjUiIHJ5PSIyLjUiIHN0eWxlPSJzdHJva2U6IzE4MTgxODtzdHJva2Utd2lkdGg6MC41OyIgd2lkdGg9IjI3MyIgeD0iNDk0LjUiIHk9Ijg1NiIvPjxlbGxpcHNlIGN4PSI1ODguMjUiIGN5PSI4NzIiIGZpbGw9IiNBREQxQjIiIHJ4PSIxMSIgcnk9IjExIiBzdHlsZT0ic3Ryb2tlOiMxODE4MTg7c3Ryb2tlLXdpZHRoOjEuMDsiLz48cGF0aCBkPSJNNTg1Ljg3NSw4NzYuMjUgTDU4NS44NzUsODc4IEw1OTAuODEyNSw4NzggTDU5MC44MTI1LDg3Ni4yNSBMNTg1Ljg3NSw4NzYuMjUgWiBNNTg2LjU2MjUsODc2LjkzNzUgUTU4Ni41NjI1LDg3Ni45Mzc1IDU4Ni41NjI1LDg2Ny43NSBMNTg0LjgxMjUsODY3Ljc1IFE1ODQuODEyNSw4NjcuNzUgNTg0LjgxMjUsODc2LjkzNzUgTDU4Ni41NjI1LDg3Ni45Mzc1IFogTTU5MC4xMjUsODc2LjkzNzUgTDU5MS44NzUsODc2LjkzNzUgUTU5MS44NzUsODc2LjkzNzUgNTkxLjg3NSw4NzQuMTI1IEw1OTAuMTI1LDg3NC4xMjUgUTU5MC4xMjUsODc0LjEyNSA1OTAuMTI1LDg3Ni45Mzc1IFogTTU5MC4xMjUsODY3Ljc1IFE1OTAuMTI1LDg2Ny43NSA1OTAuMTI1LDg3MC41NjI1IEw1OTEuODc1LDg3MC41NjI1IFE1OTEuODc1LDg3MC41NjI1IDU5MS44NzUsODY3Ljc1IEw1OTAuMTI1LDg2Ny43NSBaIE01ODUuODc1LDg2OC40Mzc1IEw1OTAuODEyNSw4NjguNDM3NSBMNTkwLjgxMjUsODY2LjY4NzUgTDU4NS44NzUsODY2LjY4NzUgTDU4NS44NzUsODY4LjQzNzUgWiAiIGZpbGw9IiMwMDAwMDAiLz48dGV4dCBmaWxsPSIjMDAwMDAwIiBmb250LWZhbWlseT0ic2Fucy1zZXJpZiIgZm9udC1zaXplPSIxNCIgbGVuZ3RoQWRqdXN0PSJzcGFjaW5nIiB0ZXh0TGVuZ3RoPSI3NyIgeD0iNjA4Ljc1IiB5PSI4NzcuNzQyMiI+Q2FyZE1hbmFnZXI8L3RleHQ+PGxpbmUgc3R5bGU9InN0cm9rZTojMTgxODE4O3N0cm9rZS13aWR0aDowLjU7IiB4MT0iNDk1LjUiIHgyPSI3NjYuNSIgeTE9Ijg4OCIgeTI9Ijg4OCIvPjxyZWN0IGZpbGw9Im5vbmUiIGhlaWdodD0iNiIgc3R5bGU9InN0cm9rZTojQzgyOTMwO3N0cm9rZS13aWR0aDoxLjA7IiB3aWR0aD0iNiIgeD0iNTAyLjUiIHk9Ijg5Ny45OTIyIi8+PHRleHQgZmlsbD0iIzAwMDAwMCIgZm9udC1mYW1pbHk9InNhbnMtc2VyaWYiIGZvbnQtc2l6ZT0iMTQiIGxlbmd0aEFkanVzdD0ic3BhY2luZyIgdGV4dExlbmd0aD0iMTYxIiB4PSI1MTQuNSIgeT0iOTA1LjIzNDQiPmNhcmRzOiBMaXN0Jmx0O0FjY2Vzc0NhcmQmZ3Q7PC90ZXh0PjxsaW5lIHN0eWxlPSJzdHJva2U6IzE4MTgxODtzdHJva2Utd2lkdGg6MC41OyIgeDE9IjQ5NS41IiB4Mj0iNzY2LjUiIHkxPSI5MTAuOTg0NCIgeTI9IjkxMC45ODQ0Ii8+PGVsbGlwc2UgY3g9IjUwNS41IiBjeT0iOTIzLjk3NjYiIGZpbGw9IiM4NEJFODQiIHJ4PSIzIiByeT0iMyIgc3R5bGU9InN0cm9rZTojMDM4MDQ4O3N0cm9rZS13aWR0aDoxLjA7Ii8+PHRleHQgZmlsbD0iIzAwMDAwMCIgZm9udC1mYW1pbHk9InNhbnMtc2VyaWYiIGZvbnQtc2l6ZT0iMTQiIGxlbmd0aEFkanVzdD0ic3BhY2luZyIgdGV4dExlbmd0aD0iOTMiIHg9IjUxNC41IiB5PSI5MjguMjE4OCI+Q2FyZE1hbmFnZXIoKTwvdGV4dD48ZWxsaXBzZSBjeD0iNTA1LjUiIGN5PSI5MzguOTYwOSIgZmlsbD0iIzg0QkU4NCIgcng9IjMiIHJ5PSIzIiBzdHlsZT0ic3Ryb2tlOiMwMzgwNDg7c3Ryb2tlLXdpZHRoOjEuMDsiLz48dGV4dCBmaWxsPSIjMDAwMDAwIiBmb250LWZhbWlseT0ic2Fucy1zZXJpZiIgZm9udC1zaXplPSIxNCIgbGVuZ3RoQWRqdXN0PSJzcGFjaW5nIiB0ZXh0TGVuZ3RoPSIxNzciIHg9IjUxNC41IiB5PSI5NDMuMjAzMSI+YWRkQ2FyZChjYXJkOiBBY2Nlc3NDYXJkKTwvdGV4dD48ZWxsaXBzZSBjeD0iNTA1LjUiIGN5PSI5NTMuOTQ1MyIgZmlsbD0iIzg0QkU4NCIgcng9IjMiIHJ5PSIzIiBzdHlsZT0ic3Ryb2tlOiMwMzgwNDg7c3Ryb2tlLXdpZHRoOjEuMDsiLz48dGV4dCBmaWxsPSIjMDAwMDAwIiBmb250LWZhbWlseT0ic2Fucy1zZXJpZiIgZm9udC1zaXplPSIxNCIgbGVuZ3RoQWRqdXN0PSJzcGFjaW5nIiB0ZXh0TGVuZ3RoPSIyNDciIHg9IjUxNC41IiB5PSI5NTguMTg3NSI+Z2V0Q2FyZChjYXJkSWQ6IFN0cmluZyk6IEFjY2Vzc0NhcmQ8L3RleHQ+PGVsbGlwc2UgY3g9IjUwNS41IiBjeT0iOTY4LjkyOTciIGZpbGw9IiM4NEJFODQiIHJ4PSIzIiByeT0iMyIgc3R5bGU9InN0cm9rZTojMDM4MDQ4O3N0cm9rZS13aWR0aDoxLjA7Ii8+PHRleHQgZmlsbD0iIzAwMDAwMCIgZm9udC1mYW1pbHk9InNhbnMtc2VyaWYiIGZvbnQtc2l6ZT0iMTQiIGxlbmd0aEFkanVzdD0ic3BhY2luZyIgdGV4dExlbmd0aD0iMTg1IiB4PSI1MTQuNSIgeT0iOTczLjE3MTkiPnJlbW92ZUNhcmQoY2FyZElkOiBTdHJpbmcpPC90ZXh0PjxlbGxpcHNlIGN4PSI1MDUuNSIgY3k9Ijk4My45MTQxIiBmaWxsPSIjODRCRTg0IiByeD0iMyIgcnk9IjMiIHN0eWxlPSJzdHJva2U6IzAzODA0ODtzdHJva2Utd2lkdGg6MS4wOyIvPjx0ZXh0IGZpbGw9IiMwMDAwMDAiIGZvbnQtZmFtaWx5PSJzYW5zLXNlcmlmIiBmb250LXNpemU9IjE0IiBsZW5ndGhBZGp1c3Q9InNwYWNpbmciIHRleHRMZW5ndGg9IjIxOSIgeD0iNTE0LjUiIHk9Ijk4OC4xNTYzIj5nZXRBbGxDYXJkcygpOiBMaXN0Jmx0O0FjY2Vzc0NhcmQmZ3Q7PC90ZXh0PjwvZz48IS0tY2xhc3MgRml0bmVzc0FjY2Vzc0NvbnRyb2wtLT48ZyBpZD0iZWxlbV9GaXRuZXNzQWNjZXNzQ29udHJvbCI+PHJlY3QgY29kZUxpbmU9IjMwIiBmaWxsPSIjRjFGMUYxIiBoZWlnaHQ9IjI1Ny43ODEzIiBpZD0iRml0bmVzc0FjY2Vzc0NvbnRyb2wiIHJ4PSIyLjUiIHJ5PSIyLjUiIHN0eWxlPSJzdHJva2U6IzE4MTgxODtzdHJva2Utd2lkdGg6MC41OyIgd2lkdGg9IjI3NCIgeD0iNzI2IiB5PSIxOTAiLz48ZWxsaXBzZSBjeD0iNzg4Ljc1IiBjeT0iMjA2IiBmaWxsPSIjQUREMUIyIiByeD0iMTEiIHJ5PSIxMSIgc3R5bGU9InN0cm9rZTojMTgxODE4O3N0cm9rZS13aWR0aDoxLjA7Ii8+PHBhdGggZD0iTTc4Ni4zNzUsMjEwLjI1IEw3ODYuMzc1LDIxMiBMNzkxLjMxMjUsMjEyIEw3OTEuMzEyNSwyMTAuMjUgTDc4Ni4zNzUsMjEwLjI1IFogTTc4Ny4wNjI1LDIxMC45Mzc1IFE3ODcuMDYyNSwyMTAuOTM3NSA3ODcuMDYyNSwyMDEuNzUgTDc4NS4zMTI1LDIwMS43NSBRNzg1LjMxMjUsMjAxLjc1IDc4NS4zMTI1LDIxMC45Mzc1IEw3ODcuMDYyNSwyMTAuOTM3NSBaIE03OTAuNjI1LDIxMC45Mzc1IEw3OTIuMzc1LDIxMC45Mzc1IFE3OTIuMzc1LDIxMC45Mzc1IDc5Mi4zNzUsMjA4LjEyNSBMNzkwLjYyNSwyMDguMTI1IFE3OTAuNjI1LDIwOC4xMjUgNzkwLjYyNSwyMTAuOTM3NSBaIE03OTAuNjI1LDIwMS43NSBRNzkwLjYyNSwyMDEuNzUgNzkwLjYyNSwyMDQuNTYyNSBMNzkyLjM3NSwyMDQuNTYyNSBRNzkyLjM3NSwyMDQuNTYyNSA3OTIuMzc1LDIwMS43NSBMNzkwLjYyNSwyMDEuNzUgWiBNNzg2LjM3NSwyMDIuNDM3NSBMNzkxLjMxMjUsMjAyLjQzNzUgTDc5MS4zMTI1LDIwMC42ODc1IEw3ODYuMzc1LDIwMC42ODc1IEw3ODYuMzc1LDIwMi40Mzc1IFogIiBmaWxsPSIjMDAwMDAwIi8+PHRleHQgZmlsbD0iIzAwMDAwMCIgZm9udC1mYW1pbHk9InNhbnMtc2VyaWYiIGZvbnQtc2l6ZT0iMTQiIGxlbmd0aEFkanVzdD0ic3BhY2luZyIgdGV4dExlbmd0aD0iMTQwIiB4PSI4MDkuMjUiIHk9IjIxMS43NDIyIj5GaXRuZXNzQWNjZXNzQ29udHJvbDwvdGV4dD48bGluZSBzdHlsZT0ic3Ryb2tlOiMxODE4MTg7c3Ryb2tlLXdpZHRoOjAuNTsiIHgxPSI3MjciIHgyPSI5OTkiIHkxPSIyMjIiIHkyPSIyMjIiLz48cmVjdCBmaWxsPSJub25lIiBoZWlnaHQ9IjYiIHN0eWxlPSJzdHJva2U6I0M4MjkzMDtzdHJva2Utd2lkdGg6MS4wOyIgd2lkdGg9IjYiIHg9IjczNCIgeT0iMjMxLjk5MjIiLz48dGV4dCBmaWxsPSIjMDAwMDAwIiBmb250LWZhbWlseT0ic2Fucy1zZXJpZiIgZm9udC1zaXplPSIxNCIgbGVuZ3RoQWRqdXN0PSJzcGFjaW5nIiB0ZXh0TGVuZ3RoPSIxNjIiIHg9Ijc0NiIgeT0iMjM5LjIzNDQiPmNhcmRJZEZpZWxkOiBKVGV4dEZpZWxkPC90ZXh0PjxyZWN0IGZpbGw9Im5vbmUiIGhlaWdodD0iNiIgc3R5bGU9InN0cm9rZTojQzgyOTMwO3N0cm9rZS13aWR0aDoxLjA7IiB3aWR0aD0iNiIgeD0iNzM0IiB5PSIyNDYuOTc2NiIvPjx0ZXh0IGZpbGw9IiMwMDAwMDAiIGZvbnQtZmFtaWx5PSJzYW5zLXNlcmlmIiBmb250LXNpemU9IjE0IiBsZW5ndGhBZGp1c3Q9InNwYWNpbmciIHRleHRMZW5ndGg9IjE3NiIgeD0iNzQ2IiB5PSIyNTQuMjE4OCI+c3RhcnREYXlGaWVsZDogSlRleHRGaWVsZDwvdGV4dD48cmVjdCBmaWxsPSJub25lIiBoZWlnaHQ9IjYiIHN0eWxlPSJzdHJva2U6I0M4MjkzMDtzdHJva2Utd2lkdGg6MS4wOyIgd2lkdGg9IjYiIHg9IjczNCIgeT0iMjYxLjk2MDkiLz48dGV4dCBmaWxsPSIjMDAwMDAwIiBmb250LWZhbWlseT0ic2Fucy1zZXJpZiIgZm9udC1zaXplPSIxNCIgbGVuZ3RoQWRqdXN0PSJzcGFjaW5nIiB0ZXh0TGVuZ3RoPSIxNjIiIHg9Ijc0NiIgeT0iMjY5LjIwMzEiPmVuZERheUZpZWxkOiBKVGV4dEZpZWxkPC90ZXh0PjxyZWN0IGZpbGw9Im5vbmUiIGhlaWdodD0iNiIgc3R5bGU9InN0cm9rZTojQzgyOTMwO3N0cm9rZS13aWR0aDoxLjA7IiB3aWR0aD0iNiIgeD0iNzM0IiB5PSIyNzYuOTQ1MyIvPjx0ZXh0IGZpbGw9IiMwMDAwMDAiIGZvbnQtZmFtaWx5PSJzYW5zLXNlcmlmIiBmb250LXNpemU9IjE0IiBsZW5ndGhBZGp1c3Q9InNwYWNpbmciIHRleHRMZW5ndGg9IjE4NCIgeD0iNzQ2IiB5PSIyODQuMTg3NSI+c3RhcnRUaW1lRmllbGQ6IEpUZXh0RmllbGQ8L3RleHQ+PHJlY3QgZmlsbD0ibm9uZSIgaGVpZ2h0PSI2IiBzdHlsZT0ic3Ryb2tlOiNDODI5MzA7c3Ryb2tlLXdpZHRoOjEuMDsiIHdpZHRoPSI2IiB4PSI3MzQiIHk9IjI5MS45Mjk3Ii8+PHRleHQgZmlsbD0iIzAwMDAwMCIgZm9udC1mYW1pbHk9InNhbnMtc2VyaWYiIGZvbnQtc2l6ZT0iMTQiIGxlbmd0aEFkanVzdD0ic3BhY2luZyIgdGV4dExlbmd0aD0iMTcwIiB4PSI3NDYiIHk9IjI5OS4xNzE5Ij5lbmRUaW1lRmllbGQ6IEpUZXh0RmllbGQ8L3RleHQ+PHJlY3QgZmlsbD0ibm9uZSIgaGVpZ2h0PSI2IiBzdHlsZT0ic3Ryb2tlOiNDODI5MzA7c3Ryb2tlLXdpZHRoOjEuMDsiIHdpZHRoPSI2IiB4PSI3MzQiIHk9IjMwNi45MTQxIi8+PHRleHQgZmlsbD0iIzAwMDAwMCIgZm9udC1mYW1pbHk9InNhbnMtc2VyaWYiIGZvbnQtc2l6ZT0iMTQiIGxlbmd0aEFkanVzdD0ic3BhY2luZyIgdGV4dExlbmd0aD0iMTI3IiB4PSI3NDYiIHk9IjMxNC4xNTYzIj5sb2dBcmVhOiBKVGV4dEFyZWE8L3RleHQ+PHJlY3QgZmlsbD0ibm9uZSIgaGVpZ2h0PSI2IiBzdHlsZT0ic3Ryb2tlOiNDODI5MzA7c3Ryb2tlLXdpZHRoOjEuMDsiIHdpZHRoPSI2IiB4PSI3MzQiIHk9IjMyMS44OTg0Ii8+PHRleHQgZmlsbD0iIzAwMDAwMCIgZm9udC1mYW1pbHk9InNhbnMtc2VyaWYiIGZvbnQtc2l6ZT0iMTQiIGxlbmd0aEFkanVzdD0ic3BhY2luZyIgdGV4dExlbmd0aD0iMjQ4IiB4PSI3NDYiIHk9IjMyOS4xNDA2Ij5jYXJkVHlwZUNvbWJvQm94OiBKQ29tYm9Cb3gmbHQ7U3RyaW5nJmd0OzwvdGV4dD48cmVjdCBmaWxsPSJub25lIiBoZWlnaHQ9IjYiIHN0eWxlPSJzdHJva2U6I0M4MjkzMDtzdHJva2Utd2lkdGg6MS4wOyIgd2lkdGg9IjYiIHg9IjczNCIgeT0iMzM2Ljg4MjgiLz48dGV4dCBmaWxsPSIjMDAwMDAwIiBmb250LWZhbWlseT0ic2Fucy1zZXJpZiIgZm9udC1zaXplPSIxNCIgbGVuZ3RoQWRqdXN0PSJzcGFjaW5nIiB0ZXh0TGVuZ3RoPSIxNjgiIHg9Ijc0NiIgeT0iMzQ0LjEyNSI+Y2FyZE1hbmFnZXI6IENhcmRNYW5hZ2VyPC90ZXh0PjxsaW5lIHN0eWxlPSJzdHJva2U6IzE4MTgxODtzdHJva2Utd2lkdGg6MC41OyIgeDE9IjcyNyIgeDI9Ijk5OSIgeTE9IjM0OS44NzUiIHkyPSIzNDkuODc1Ii8+PGVsbGlwc2UgY3g9IjczNyIgY3k9IjM2Mi44NjcyIiBmaWxsPSIjODRCRTg0IiByeD0iMyIgcnk9IjMiIHN0eWxlPSJzdHJva2U6IzAzODA0ODtzdHJva2Utd2lkdGg6MS4wOyIvPjx0ZXh0IGZpbGw9IiMwMDAwMDAiIGZvbnQtZmFtaWx5PSJzYW5zLXNlcmlmIiBmb250LXNpemU9IjE0IiBsZW5ndGhBZGp1c3Q9InNwYWNpbmciIHRleHRMZW5ndGg9IjE1NiIgeD0iNzQ2IiB5PSIzNjcuMTA5NCI+Rml0bmVzc0FjY2Vzc0NvbnRyb2woKTwvdGV4dD48ZWxsaXBzZSBjeD0iNzM3IiBjeT0iMzc3Ljg1MTYiIGZpbGw9IiM4NEJFODQiIHJ4PSIzIiByeT0iMyIgc3R5bGU9InN0cm9rZTojMDM4MDQ4O3N0cm9rZS13aWR0aDoxLjA7Ii8+PHRleHQgZmlsbD0iIzAwMDAwMCIgZm9udC1mYW1pbHk9InNhbnMtc2VyaWYiIGZvbnQtc2l6ZT0iMTQiIGxlbmd0aEFkanVzdD0ic3BhY2luZyIgdGV4dExlbmd0aD0iMTA3IiB4PSI3NDYiIHk9IjM4Mi4wOTM4Ij5hZGRDYXJkKCk6IHZvaWQ8L3RleHQ+PGVsbGlwc2UgY3g9IjczNyIgY3k9IjM5Mi44MzU5IiBmaWxsPSIjODRCRTg0IiByeD0iMyIgcnk9IjMiIHN0eWxlPSJzdHJva2U6IzAzODA0ODtzdHJva2Utd2lkdGg6MS4wOyIvPjx0ZXh0IGZpbGw9IiMwMDAwMDAiIGZvbnQtZmFtaWx5PSJzYW5zLXNlcmlmIiBmb250LXNpemU9IjE0IiBsZW5ndGhBZGp1c3Q9InNwYWNpbmciIHRleHRMZW5ndGg9IjEyOSIgeD0iNzQ2IiB5PSIzOTcuMDc4MSI+bW9kaWZ5Q2FyZCgpOiB2b2lkPC90ZXh0PjxlbGxpcHNlIGN4PSI3MzciIGN5PSI0MDcuODIwMyIgZmlsbD0iIzg0QkU4NCIgcng9IjMiIHJ5PSIzIiBzdHlsZT0ic3Ryb2tlOiMwMzgwNDg7c3Ryb2tlLXdpZHRoOjEuMDsiLz48dGV4dCBmaWxsPSIjMDAwMDAwIiBmb250LWZhbWlseT0ic2Fucy1zZXJpZiIgZm9udC1zaXplPSIxNCIgbGVuZ3RoQWRqdXN0PSJzcGFjaW5nIiB0ZXh0TGVuZ3RoPSIxMjgiIHg9Ijc0NiIgeT0iNDEyLjA2MjUiPnJldm9rZUNhcmQoKTogdm9pZDwvdGV4dD48ZWxsaXBzZSBjeD0iNzM3IiBjeT0iNDIyLjgwNDciIGZpbGw9IiM4NEJFODQiIHJ4PSIzIiByeT0iMyIgc3R5bGU9InN0cm9rZTojMDM4MDQ4O3N0cm9rZS13aWR0aDoxLjA7Ii8+PHRleHQgZmlsbD0iIzAwMDAwMCIgZm9udC1mYW1pbHk9InNhbnMtc2VyaWYiIGZvbnQtc2l6ZT0iMTQiIGxlbmd0aEFkanVzdD0ic3BhY2luZyIgdGV4dExlbmd0aD0iMTM1IiB4PSI3NDYiIHk9IjQyNy4wNDY5Ij5jaGVja0FjY2VzcygpOiB2b2lkPC90ZXh0PjxlbGxpcHNlIGN4PSI3MzciIGN5PSI0MzcuNzg5MSIgZmlsbD0iIzg0QkU4NCIgcng9IjMiIHJ5PSIzIiBzdHlsZT0ic3Ryb2tlOiMwMzgwNDg7c3Ryb2tlLXdpZHRoOjEuMDsiLz48dGV4dCBmaWxsPSIjMDAwMDAwIiBmb250LWZhbWlseT0ic2Fucy1zZXJpZiIgZm9udC1zaXplPSIxNCIgbGVuZ3RoQWRqdXN0PSJzcGFjaW5nIiB0ZXh0TGVuZ3RoPSIxMjIiIHg9Ijc0NiIgeT0iNDQyLjAzMTMiPnNob3dDYXJkcygpOiB2b2lkPC90ZXh0PjwvZz48IS0tY2xhc3MgTWFpbi0tPjxnIGlkPSJlbGVtX01haW4iPjxyZWN0IGNvZGVMaW5lPSI0OCIgZmlsbD0iI0YxRjFGMSIgaGVpZ2h0PSI2Mi45ODQ0IiBpZD0iTWFpbiIgcng9IjIuNSIgcnk9IjIuNSIgc3R5bGU9InN0cm9rZTojMTgxODE4O3N0cm9rZS13aWR0aDowLjU7IiB3aWR0aD0iMjExIiB4PSI3NTcuNSIgeT0iMjkuNSIvPjxlbGxpcHNlIGN4PSI4NDQuNzUiIGN5PSI0NS41IiBmaWxsPSIjQUREMUIyIiByeD0iMTEiIHJ5PSIxMSIgc3R5bGU9InN0cm9rZTojMTgxODE4O3N0cm9rZS13aWR0aDoxLjA7Ii8+PHBhdGggZD0iTTg0Mi4zNzUsNDkuNzUgTDg0Mi4zNzUsNTEuNSBMODQ3LjMxMjUsNTEuNSBMODQ3LjMxMjUsNDkuNzUgTDg0Mi4zNzUsNDkuNzUgWiBNODQzLjA2MjUsNTAuNDM3NSBRODQzLjA2MjUsNTAuNDM3NSA4NDMuMDYyNSw0MS4yNSBMODQxLjMxMjUsNDEuMjUgUTg0MS4zMTI1LDQxLjI1IDg0MS4zMTI1LDUwLjQzNzUgTDg0My4wNjI1LDUwLjQzNzUgWiBNODQ2LjYyNSw1MC40Mzc1IEw4NDguMzc1LDUwLjQzNzUgUTg0OC4zNzUsNTAuNDM3NSA4NDguMzc1LDQ3LjYyNSBMODQ2LjYyNSw0Ny42MjUgUTg0Ni42MjUsNDcuNjI1IDg0Ni42MjUsNTAuNDM3NSBaIE04NDYuNjI1LDQxLjI1IFE4NDYuNjI1LDQxLjI1IDg0Ni42MjUsNDQuMDYyNSBMODQ4LjM3NSw0NC4wNjI1IFE4NDguMzc1LDQ0LjA2MjUgODQ4LjM3NSw0MS4yNSBMODQ2LjYyNSw0MS4yNSBaIE04NDIuMzc1LDQxLjkzNzUgTDg0Ny4zMTI1LDQxLjkzNzUgTDg0Ny4zMTI1LDQwLjE4NzUgTDg0Mi4zNzUsNDAuMTg3NSBMODQyLjM3NSw0MS45Mzc1IFogIiBmaWxsPSIjMDAwMDAwIi8+PHRleHQgZmlsbD0iIzAwMDAwMCIgZm9udC1mYW1pbHk9InNhbnMtc2VyaWYiIGZvbnQtc2l6ZT0iMTQiIGxlbmd0aEFkanVzdD0ic3BhY2luZyIgdGV4dExlbmd0aD0iMjgiIHg9Ijg2NS4yNSIgeT0iNTEuMjQyMiI+TWFpbjwvdGV4dD48bGluZSBzdHlsZT0ic3Ryb2tlOiMxODE4MTg7c3Ryb2tlLXdpZHRoOjAuNTsiIHgxPSI3NTguNSIgeDI9Ijk2Ny41IiB5MT0iNjEuNSIgeTI9IjYxLjUiLz48bGluZSBzdHlsZT0ic3Ryb2tlOiMxODE4MTg7c3Ryb2tlLXdpZHRoOjAuNTsiIHgxPSI3NTguNSIgeDI9Ijk2Ny41IiB5MT0iNjkuNSIgeTI9IjY5LjUiLz48ZWxsaXBzZSBjeD0iNzY4LjUiIGN5PSI4Mi40OTIyIiBmaWxsPSIjODRCRTg0IiByeD0iMyIgcnk9IjMiIHN0eWxlPSJzdHJva2U6IzAzODA0ODtzdHJva2Utd2lkdGg6MS4wOyIvPjx0ZXh0IGZpbGw9IiMwMDAwMDAiIGZvbnQtZmFtaWx5PSJzYW5zLXNlcmlmIiBmb250LXNpemU9IjE0IiBsZW5ndGhBZGp1c3Q9InNwYWNpbmciIHRleHRMZW5ndGg9IjE4NSIgeD0iNzc3LjUiIHk9Ijg2LjczNDQiPm1haW4oYXJnczogU3RyaW5nW10pOiB2b2lkPC90ZXh0PjwvZz48IS0tY2xhc3MgU2VjdXJpdHlNb2R1bGUtLT48ZyBpZD0iZWxlbV9TZWN1cml0eU1vZHVsZSI+PHJlY3QgY29kZUxpbmU9IjUzIiBmaWxsPSIjRjFGMUYxIiBoZWlnaHQ9IjEwNy45Mzc1IiBpZD0iU2VjdXJpdHlNb2R1bGUiIHJ4PSIyLjUiIHJ5PSIyLjUiIHN0eWxlPSJzdHJva2U6IzE4MTgxODtzdHJva2Utd2lkdGg6MC41OyIgd2lkdGg9IjI2OCIgeD0iMTAyNCIgeT0iNyIvPjxlbGxpcHNlIGN4PSIxMTA0Ljc1IiBjeT0iMjMiIGZpbGw9IiNBOURDREYiIHJ4PSIxMSIgcnk9IjExIiBzdHlsZT0ic3Ryb2tlOiMxODE4MTg7c3Ryb2tlLXdpZHRoOjEuMDsiLz48cGF0aCBkPSJNMTEwMS4zMTI1LDIwLjYyNSBMMTEwMS4zMTI1LDI4Ljc1IEwxMTAzLjA2MjUsMjguNzUgUTExMDMuMDYyNSwyOC43NSAxMTAzLjA2MjUsMjQuNSBMMTEwNi42MjUsMjQuNSBRMTEwNi42MjUsMjQuNSAxMTA2LjYyNSwyOC43NSBMMTEwOC4zNzUsMjguNzUgTDExMDguMzc1LDIwLjYyNSBMMTEwNi42MjUsMjAuNjI1IFExMTA2LjYyNSwyMC42MjUgMTEwNi42MjUsMjIuNzUgTDExMDMuMDYyNSwyMi43NSBRMTEwMy4wNjI1LDIyLjc1IDExMDMuMDYyNSwyMC42MjUgTDExMDEuMzEyNSwyMC42MjUgWiBNMTEwMi4zNzUsMjEuMzEyNSBMMTEwNC4xMjUsMjEuMzEyNSBRMTEwNC4xMjUsMjEuMzEyNSAxMTA0LjEyNSwxOC41IEwxMTAyLjM3NSwxOC41IFExMTAyLjM3NSwxOC41IDExMDIuMzc1LDIxLjMxMjUgWiBNMTEwNy4zMTI1LDIxLjMxMjUgUTExMDcuMzEyNSwyMS4zMTI1IDExMDcuMzEyNSwxOC41IEwxMTA1LjU2MjUsMTguNSBRMTEwNS41NjI1LDE4LjUgMTEwNS41NjI1LDIxLjMxMjUgTDExMDcuMzEyNSwyMS4zMTI1IFogTTExMDMuNDM3NSwxOS4xODc1IEwxMTA2LjI1LDE5LjE4NzUgTDExMDYuMjUsMTcuNDM3NSBMMTEwMy40Mzc1LDE3LjQzNzUgTDExMDMuNDM3NSwxOS4xODc1IFogIiBmaWxsPSIjMDAwMDAwIi8+PHRleHQgZmlsbD0iIzAwMDAwMCIgZm9udC1mYW1pbHk9InNhbnMtc2VyaWYiIGZvbnQtc2l6ZT0iMTQiIGZvbnQtc3R5bGU9Iml0YWxpYyIgbGVuZ3RoQWRqdXN0PSJzcGFjaW5nIiB0ZXh0TGVuZ3RoPSI5OCIgeD0iMTEyNS4yNSIgeT0iMjguNzQyMiI+U2VjdXJpdHlNb2R1bGU8L3RleHQ+PGxpbmUgc3R5bGU9InN0cm9rZTojMTgxODE4O3N0cm9rZS13aWR0aDowLjU7IiB4MT0iMTAyNSIgeDI9IjEyOTEiIHkxPSIzOSIgeTI9IjM5Ii8+PHJlY3QgZmlsbD0ibm9uZSIgaGVpZ2h0PSI2IiBzdHlsZT0ic3Ryb2tlOiNDODI5MzA7c3Ryb2tlLXdpZHRoOjEuMDsiIHdpZHRoPSI2IiB4PSIxMDMyIiB5PSI0OC45OTIyIi8+PHRleHQgZmlsbD0iIzAwMDAwMCIgZm9udC1mYW1pbHk9InNhbnMtc2VyaWYiIGZvbnQtc2l6ZT0iMTQiIGxlbmd0aEFkanVzdD0ic3BhY2luZyIgdGV4dExlbmd0aD0iMTI4IiB4PSIxMDQ0IiB5PSI1Ni4yMzQ0Ij5tb2R1bGVOYW1lOiBTdHJpbmc8L3RleHQ+PGxpbmUgc3R5bGU9InN0cm9rZTojMTgxODE4O3N0cm9rZS13aWR0aDowLjU7IiB4MT0iMTAyNSIgeDI9IjEyOTEiIHkxPSI2MS45ODQ0IiB5Mj0iNjEuOTg0NCIvPjxlbGxpcHNlIGN4PSIxMDM1IiBjeT0iNzQuOTc2NiIgZmlsbD0iIzg0QkU4NCIgcng9IjMiIHJ5PSIzIiBzdHlsZT0ic3Ryb2tlOiMwMzgwNDg7c3Ryb2tlLXdpZHRoOjEuMDsiLz48dGV4dCBmaWxsPSIjMDAwMDAwIiBmb250LWZhbWlseT0ic2Fucy1zZXJpZiIgZm9udC1zaXplPSIxNCIgbGVuZ3RoQWRqdXN0PSJzcGFjaW5nIiB0ZXh0TGVuZ3RoPSIyNDIiIHg9IjEwNDQiIHk9Ijc5LjIxODgiPlNlY3VyaXR5TW9kdWxlKG1vZHVsZU5hbWU6IFN0cmluZyk8L3RleHQ+PGVsbGlwc2UgY3g9IjEwMzUiIGN5PSI4OS45NjA5IiBmaWxsPSIjODRCRTg0IiByeD0iMyIgcnk9IjMiIHN0eWxlPSJzdHJva2U6IzAzODA0ODtzdHJva2Utd2lkdGg6MS4wOyIvPjx0ZXh0IGZpbGw9IiMwMDAwMDAiIGZvbnQtZmFtaWx5PSJzYW5zLXNlcmlmIiBmb250LXNpemU9IjE0IiBsZW5ndGhBZGp1c3Q9InNwYWNpbmciIHRleHRMZW5ndGg9IjExNCIgeD0iMTA0NCIgeT0iOTQuMjAzMSI+YWN0aXZhdGUoKTogdm9pZDwvdGV4dD48ZWxsaXBzZSBjeD0iMTAzNSIgY3k9IjEwNC45NDUzIiBmaWxsPSIjODRCRTg0IiByeD0iMyIgcnk9IjMiIHN0eWxlPSJzdHJva2U6IzAzODA0ODtzdHJva2Utd2lkdGg6MS4wOyIvPjx0ZXh0IGZpbGw9IiMwMDAwMDAiIGZvbnQtZmFtaWx5PSJzYW5zLXNlcmlmIiBmb250LXNpemU9IjE0IiBsZW5ndGhBZGp1c3Q9InNwYWNpbmciIHRleHRMZW5ndGg9IjE1NyIgeD0iMTA0NCIgeT0iMTA5LjE4NzUiPnNob3dNb2R1bGVJbmZvKCk6IHZvaWQ8L3RleHQ+PC9nPjwhLS1jbGFzcyBTaW5nbGV0b25QYXR0ZXJuLS0+PGcgaWQ9ImVsZW1fU2luZ2xldG9uUGF0dGVybiI+PHJlY3QgY29kZUxpbmU9IjYxIiBmaWxsPSIjRjFGMUYxIiBoZWlnaHQ9IjkyLjk1MzEiIGlkPSJTaW5nbGV0b25QYXR0ZXJuIiByeD0iMi41IiByeT0iMi41IiBzdHlsZT0ic3Ryb2tlOiMxODE4MTg7c3Ryb2tlLXdpZHRoOjAuNTsiIHdpZHRoPSIyNDUiIHg9IjEwMzUuNSIgeT0iMjcyLjUiLz48ZWxsaXBzZSBjeD0iMTA5Ny43NSIgY3k9IjI4OC41IiBmaWxsPSIjQUREMUIyIiByeD0iMTEiIHJ5PSIxMSIgc3R5bGU9InN0cm9rZTojMTgxODE4O3N0cm9rZS13aWR0aDoxLjA7Ii8+PHBhdGggZD0iTTEwOTUuMzc1LDI5Mi43NSBMMTA5NS4zNzUsMjk0LjUgTDExMDAuMzEyNSwyOTQuNSBMMTEwMC4zMTI1LDI5Mi43NSBMMTA5NS4zNzUsMjkyLjc1IFogTTEwOTYuMDYyNSwyOTMuNDM3NSBRMTA5Ni4wNjI1LDI5My40Mzc1IDEwOTYuMDYyNSwyODQuMjUgTDEwOTQuMzEyNSwyODQuMjUgUTEwOTQuMzEyNSwyODQuMjUgMTA5NC4zMTI1LDI5My40Mzc1IEwxMDk2LjA2MjUsMjkzLjQzNzUgWiBNMTA5OS42MjUsMjkzLjQzNzUgTDExMDEuMzc1LDI5My40Mzc1IFExMTAxLjM3NSwyOTMuNDM3NSAxMTAxLjM3NSwyOTAuNjI1IEwxMDk5LjYyNSwyOTAuNjI1IFExMDk5LjYyNSwyOTAuNjI1IDEwOTkuNjI1LDI5My40Mzc1IFogTTEwOTkuNjI1LDI4NC4yNSBRMTA5OS42MjUsMjg0LjI1IDEwOTkuNjI1LDI4Ny4wNjI1IEwxMTAxLjM3NSwyODcuMDYyNSBRMTEwMS4zNzUsMjg3LjA2MjUgMTEwMS4zNzUsMjg0LjI1IEwxMDk5LjYyNSwyODQuMjUgWiBNMTA5NS4zNzUsMjg0LjkzNzUgTDExMDAuMzEyNSwyODQuOTM3NSBMMTEwMC4zMTI1LDI4My4xODc1IEwxMDk1LjM3NSwyODMuMTg3NSBMMTA5NS4zNzUsMjg0LjkzNzUgWiAiIGZpbGw9IiMwMDAwMDAiLz48dGV4dCBmaWxsPSIjMDAwMDAwIiBmb250LWZhbWlseT0ic2Fucy1zZXJpZiIgZm9udC1zaXplPSIxNCIgbGVuZ3RoQWRqdXN0PSJzcGFjaW5nIiB0ZXh0TGVuZ3RoPSIxMTIiIHg9IjExMTguMjUiIHk9IjI5NC4yNDIyIj5TaW5nbGV0b25QYXR0ZXJuPC90ZXh0PjxsaW5lIHN0eWxlPSJzdHJva2U6IzE4MTgxODtzdHJva2Utd2lkdGg6MC41OyIgeDE9IjEwMzYuNSIgeDI9IjEyNzkuNSIgeTE9IjMwNC41IiB5Mj0iMzA0LjUiLz48cmVjdCBmaWxsPSJub25lIiBoZWlnaHQ9IjYiIHN0eWxlPSJzdHJva2U6I0M4MjkzMDtzdHJva2Utd2lkdGg6MS4wOyIgd2lkdGg9IjYiIHg9IjEwNDMuNSIgeT0iMzE0LjQ5MjIiLz48dGV4dCBmaWxsPSIjMDAwMDAwIiBmb250LWZhbWlseT0ic2Fucy1zZXJpZiIgZm9udC1zaXplPSIxNCIgbGVuZ3RoQWRqdXN0PSJzcGFjaW5nIiB0ZXh0TGVuZ3RoPSIxODIiIHg9IjEwNTUuNSIgeT0iMzIxLjczNDQiPmluc3RhbmNlOiBTaW5nbGV0b25QYXR0ZXJuPC90ZXh0PjxsaW5lIHN0eWxlPSJzdHJva2U6IzE4MTgxODtzdHJva2Utd2lkdGg6MC41OyIgeDE9IjEwMzYuNSIgeDI9IjEyNzkuNSIgeTE9IjMyNy40ODQ0IiB5Mj0iMzI3LjQ4NDQiLz48ZWxsaXBzZSBjeD0iMTA0Ni41IiBjeT0iMzQwLjQ3NjYiIGZpbGw9IiM4NEJFODQiIHJ4PSIzIiByeT0iMyIgc3R5bGU9InN0cm9rZTojMDM4MDQ4O3N0cm9rZS13aWR0aDoxLjA7Ii8+PHRleHQgZmlsbD0iIzAwMDAwMCIgZm9udC1mYW1pbHk9InNhbnMtc2VyaWYiIGZvbnQtc2l6ZT0iMTQiIGxlbmd0aEFkanVzdD0ic3BhY2luZyIgdGV4dExlbmd0aD0iMTI4IiB4PSIxMDU1LjUiIHk9IjM0NC43MTg4Ij5TaW5nbGV0b25QYXR0ZXJuKCk8L3RleHQ+PGVsbGlwc2UgY3g9IjEwNDYuNSIgY3k9IjM1NS40NjA5IiBmaWxsPSIjODRCRTg0IiByeD0iMyIgcnk9IjMiIHN0eWxlPSJzdHJva2U6IzAzODA0ODtzdHJva2Utd2lkdGg6MS4wOyIvPjx0ZXh0IGZpbGw9IiMwMDAwMDAiIGZvbnQtZmFtaWx5PSJzYW5zLXNlcmlmIiBmb250LXNpemU9IjE0IiBsZW5ndGhBZGp1c3Q9InNwYWNpbmciIHRleHRMZW5ndGg9IjIxOSIgeD0iMTA1NS41IiB5PSIzNTkuNzAzMSI+Z2V0SW5zdGFuY2UoKTogU2luZ2xldG9uUGF0dGVybjwvdGV4dD48L2c+PCEtLWNsYXNzIENhcmRUeXBlLS0+PGcgaWQ9ImVsZW1fQ2FyZFR5cGUiPjxyZWN0IGNvZGVMaW5lPSI2OCIgZmlsbD0iI0YxRjFGMSIgaGVpZ2h0PSI5Mi45NTMxIiBpZD0iQ2FyZFR5cGUiIHJ4PSIyLjUiIHJ5PSIyLjUiIHN0eWxlPSJzdHJva2U6IzE4MTgxODtzdHJva2Utd2lkdGg6MC41OyIgd2lkdGg9Ijg4IiB4PSI5NDgiIHk9IjYwNS41Ii8+PGVsbGlwc2UgY3g9Ijk2MyIgY3k9IjYyMS41IiBmaWxsPSIjRUI5MzdGIiByeD0iMTEiIHJ5PSIxMSIgc3R5bGU9InN0cm9rZTojMTgxODE4O3N0cm9rZS13aWR0aDoxLjA7Ii8+PHBhdGggZD0iTTk2Ni42MjUsNjI3LjUgTDk2Ni42MjUsNjI1Ljc1IEw5NjEuMzEyNSw2MjUuNzUgUTk2MS4zMTI1LDYyNS43NSA5NjEuMzEyNSw2MjIuMTg3NSBMOTY1LjU2MjUsNjIyLjE4NzUgTDk2NS41NjI1LDYyMC40Mzc1IEw5NjEuMzEyNSw2MjAuNDM3NSBMOTYxLjMxMjUsNjE3LjkzNzUgTDk2Ni42MjUsNjE3LjkzNzUgTDk2Ni42MjUsNjE2LjE4NzUgTDk1OS41NjI1LDYxNi4xODc1IFE5NTkuNTYyNSw2MTYuMTg3NSA5NTkuNTYyNSw2MjcuNSBMOTY2LjYyNSw2MjcuNSBaICIgZmlsbD0iIzAwMDAwMCIvPjx0ZXh0IGZpbGw9IiMwMDAwMDAiIGZvbnQtZmFtaWx5PSJzYW5zLXNlcmlmIiBmb250LXNpemU9IjE0IiBsZW5ndGhBZGp1c3Q9InNwYWNpbmciIHRleHRMZW5ndGg9IjU2IiB4PSI5NzciIHk9IjYyNy4yNDIyIj5DYXJkVHlwZTwvdGV4dD48bGluZSBzdHlsZT0ic3Ryb2tlOiMxODE4MTg7c3Ryb2tlLXdpZHRoOjAuNTsiIHgxPSI5NDkiIHgyPSIxMDM1IiB5MT0iNjM3LjUiIHkyPSI2MzcuNSIvPjx0ZXh0IGZpbGw9IiMwMDAwMDAiIGZvbnQtZmFtaWx5PSJzYW5zLXNlcmlmIiBmb250LXNpemU9IjE0IiBsZW5ndGhBZGp1c3Q9InNwYWNpbmciIHRleHRMZW5ndGg9IjQyIiB4PSI5NTQiIHk9IjY1NC43MzQ0Ij5TSUxWRVI8L3RleHQ+PHRleHQgZmlsbD0iIzAwMDAwMCIgZm9udC1mYW1pbHk9InNhbnMtc2VyaWYiIGZvbnQtc2l6ZT0iMTQiIGxlbmd0aEFkanVzdD0ic3BhY2luZyIgdGV4dExlbmd0aD0iMjgiIHg9Ijk1NCIgeT0iNjY5LjcxODgiPkdPTEQ8L3RleHQ+PHRleHQgZmlsbD0iIzAwMDAwMCIgZm9udC1mYW1pbHk9InNhbnMtc2VyaWYiIGZvbnQtc2l6ZT0iMTQiIGxlbmd0aEFkanVzdD0ic3BhY2luZyIgdGV4dExlbmd0aD0iNTYiIHg9Ijk1NCIgeT0iNjg0LjcwMzEiPlBMQVRJTlVNPC90ZXh0PjxsaW5lIHN0eWxlPSJzdHJva2U6IzE4MTgxODtzdHJva2Utd2lkdGg6MC41OyIgeDE9Ijk0OSIgeDI9IjEwMzUiIHkxPSI2OTAuNDUzMSIgeTI9IjY5MC40NTMxIi8+PC9nPjwhLS1saW5rIEFjY2Vzc0NhcmQgdG8gQ2FyZE1hbmFnZXItLT48ZyBpZD0ibGlua19BY2Nlc3NDYXJkX0NhcmRNYW5hZ2VyIj48cGF0aCBjb2RlTGluZT0iNzUiIGQ9Ik01MDkuNDEsNzgxLjM2IEM1MzEuMzQsODA3LjA4IDU0OS42NTc5LDgyOC41NzM3IDU2OC45OTc5LDg1MS4yNjM3ICIgZmlsbD0ibm9uZSIgaWQ9IkFjY2Vzc0NhcmQtdG8tQ2FyZE1hbmFnZXIiIHN0eWxlPSJzdHJva2U6IzE4MTgxODtzdHJva2Utd2lkdGg6MS4wOyIvPjxwb2x5Z29uIGZpbGw9IiMxODE4MTgiIHBvaW50cz0iNTcyLjg5LDg1NS44Myw1NzAuMDk2LDg0Ni4zODU4LDU2OS42NDY2LDg1Mi4wMjQ3LDU2NC4wMDc2LDg1MS41NzUzLDU3Mi44OSw4NTUuODMiIHN0eWxlPSJzdHJva2U6IzE4MTgxODtzdHJva2Utd2lkdGg6MS4wOyIvPjx0ZXh0IGZpbGw9IiMwMDAwMDAiIGZvbnQtZmFtaWx5PSJzYW5zLXNlcmlmIiBmb250LXNpemU9IjEzIiBsZW5ndGhBZGp1c3Q9InNwYWNpbmciIHRleHRMZW5ndGg9IjI4IiB4PSI1NDQiIHk9IjgyNC4yODkxIj51c2VzPC90ZXh0PjwvZz48IS0tbGluayBGaXRuZXNzQWNjZXNzQ29udHJvbCB0byBDYXJkTWFuYWdlci0tPjxnIGlkPSJsaW5rX0ZpdG5lc3NBY2Nlc3NDb250cm9sX0NhcmRNYW5hZ2VyIj48cGF0aCBjb2RlTGluZT0iNzYiIGQ9Ik04NzMuNjgsNDQ4LjIyIEM4NzYsNTQ1LjQgODY2LjM4LDY3OS4xNSA4MTAsNzgxIEM3OTQuMDEsODA5Ljg4IDc3NC4yMzA5LDgzMS4yOTE2IDc0OC41MTA5LDg1Mi4xNDE2ICIgZmlsbD0ibm9uZSIgaWQ9IkZpdG5lc3NBY2Nlc3NDb250cm9sLXRvLUNhcmRNYW5hZ2VyIiBzdHlsZT0ic3Ryb2tlOiMxODE4MTg7c3Ryb2tlLXdpZHRoOjEuMDsiLz48cG9seWdvbiBmaWxsPSIjMTgxODE4IiBwb2ludHM9Ijc0My44NSw4NTUuOTIsNzUzLjM2MDMsODUzLjM1OTcsNzQ3LjczNDEsODUyLjc3MTQsNzQ4LjMyMjQsODQ3LjE0NTIsNzQzLjg1LDg1NS45MiIgc3R5bGU9InN0cm9rZTojMTgxODE4O3N0cm9rZS13aWR0aDoxLjA7Ii8+PHRleHQgZmlsbD0iIzAwMDAwMCIgZm9udC1mYW1pbHk9InNhbnMtc2VyaWYiIGZvbnQtc2l6ZT0iMTMiIGxlbmd0aEFkanVzdD0ic3BhY2luZyIgdGV4dExlbmd0aD0iNDgiIHg9Ijg3NCIgeT0iNjU3Ljc4OTEiPm1hbmFnZXM8L3RleHQ+PC9nPjwhLS1saW5rIE1haW4gdG8gRml0bmVzc0FjY2Vzc0NvbnRyb2wtLT48ZyBpZD0ibGlua19NYWluX0ZpdG5lc3NBY2Nlc3NDb250cm9sIj48cGF0aCBjb2RlTGluZT0iNzciIGQ9Ik04NjMsOTIuNjMgQzg2MywxMTcuMjQgODYzLDE0Ny42MSA4NjMsMTgzLjk3ICIgZmlsbD0ibm9uZSIgaWQ9Ik1haW4tdG8tRml0bmVzc0FjY2Vzc0NvbnRyb2wiIHN0eWxlPSJzdHJva2U6IzE4MTgxODtzdHJva2Utd2lkdGg6MS4wOyIvPjxwb2x5Z29uIGZpbGw9IiMxODE4MTgiIHBvaW50cz0iODYzLDE4OS45Nyw4NjcsMTgwLjk3LDg2MywxODQuOTcsODU5LDE4MC45Nyw4NjMsMTg5Ljk3IiBzdHlsZT0ic3Ryb2tlOiMxODE4MTg7c3Ryb2tlLXdpZHRoOjEuMDsiLz48dGV4dCBmaWxsPSIjMDAwMDAwIiBmb250LWZhbWlseT0ic2Fucy1zZXJpZiIgZm9udC1zaXplPSIxMyIgbGVuZ3RoQWRqdXN0PSJzcGFjaW5nIiB0ZXh0TGVuZ3RoPSIyOCIgeD0iODY0IiB5PSIxNTguMjg5MSI+cnVuczwvdGV4dD48L2c+PCEtLWxpbmsgRml0bmVzc0FjY2Vzc0NvbnRyb2wgdG8gQWNjZXNzQ2FyZC0tPjxnIGlkPSJsaW5rX0ZpdG5lc3NBY2Nlc3NDb250cm9sX0FjY2Vzc0NhcmQiPjxwYXRoIGNvZGVMaW5lPSI3OCIgZD0iTTcyNS45Niw0MTcuOTcgQzY3OS45Nyw0NTAuODUgNjMyLjg0MTIsNDg0LjU0MDkgNTg0LjEwMTIsNTE5LjM4MDkgIiBmaWxsPSJub25lIiBpZD0iRml0bmVzc0FjY2Vzc0NvbnRyb2wtdG8tQWNjZXNzQ2FyZCIgc3R5bGU9InN0cm9rZTojMTgxODE4O3N0cm9rZS13aWR0aDoxLjA7Ii8+PHBvbHlnb24gZmlsbD0iIzE4MTgxOCIgcG9pbnRzPSI1NzkuMjIsNTIyLjg3LDU4OC44Njc5LDUyMC44OTA0LDU4My4yODc3LDUxOS45NjI0LDU4NC4yMTU3LDUxNC4zODIyLDU3OS4yMiw1MjIuODciIHN0eWxlPSJzdHJva2U6IzE4MTgxODtzdHJva2Utd2lkdGg6MS4wOyIvPjx0ZXh0IGZpbGw9IiMwMDAwMDAiIGZvbnQtZmFtaWx5PSJzYW5zLXNlcmlmIiBmb250LXNpemU9IjEzIiBsZW5ndGhBZGp1c3Q9InNwYWNpbmciIHRleHRMZW5ndGg9IjkyIiB4PSI2MzMiIHk9IjQ5MS4yODkxIj5pbnRlcmFjdHMgd2l0aDwvdGV4dD48L2c+PCEtLXJldmVyc2UgbGluayBTZWN1cml0eU1vZHVsZSB0byBTaW5nbGV0b25QYXR0ZXJuLS0+PGcgaWQ9ImxpbmtfU2VjdXJpdHlNb2R1bGVfU2luZ2xldG9uUGF0dGVybiI+PHBhdGggY29kZUxpbmU9Ijc5IiBkPSJNMTE1OCwxMzMuMDQgQzExNTgsMTc5LjQ3IDExNTgsMjI4LjIxIDExNTgsMjcyLjMxICIgZmlsbD0ibm9uZSIgaWQ9IlNlY3VyaXR5TW9kdWxlLWJhY2t0by1TaW5nbGV0b25QYXR0ZXJuIiBzdHlsZT0ic3Ryb2tlOiMxODE4MTg7c3Ryb2tlLXdpZHRoOjEuMDsiLz48cG9seWdvbiBmaWxsPSJub25lIiBwb2ludHM9IjExNTgsMTE1LjA0LDExNTIsMTMzLjA0LDExNjQsMTMzLjA0LDExNTgsMTE1LjA0IiBzdHlsZT0ic3Ryb2tlOiMxODE4MTg7c3Ryb2tlLXdpZHRoOjEuMDsiLz48dGV4dCBmaWxsPSIjMDAwMDAwIiBmb250LWZhbWlseT0ic2Fucy1zZXJpZiIgZm9udC1zaXplPSIxMyIgbGVuZ3RoQWRqdXN0PSJzcGFjaW5nIiB0ZXh0TGVuZ3RoPSI2MCIgeD0iMTE1OSIgeT0iMTU4LjI4OTEiPnNpbmdsZXRvbjwvdGV4dD48L2c+PCEtLWxpbmsgRml0bmVzc0FjY2Vzc0NvbnRyb2wgdG8gQ2FyZFR5cGUtLT48ZyBpZD0ibGlua19GaXRuZXNzQWNjZXNzQ29udHJvbF9DYXJkVHlwZSI+PHBhdGggY29kZUxpbmU9IjgwIiBkPSJNOTEzLjA2LDQ0OC40NSBDOTM0LjU5LDUwMy42OSA5NTYuMjAxMyw1NTkuMTQ5NiA5NzEuOTgxMyw1OTkuNjM5NiAiIGZpbGw9Im5vbmUiIGlkPSJGaXRuZXNzQWNjZXNzQ29udHJvbC10by1DYXJkVHlwZSIgc3R5bGU9InN0cm9rZTojMTgxODE4O3N0cm9rZS13aWR0aDoxLjA7Ii8+PHBvbHlnb24gZmlsbD0iIzE4MTgxOCIgcG9pbnRzPSI5NzQuMTYsNjA1LjIzLDk3NC42MTg5LDU5NS4zOTE4LDk3Mi4zNDQ0LDYwMC41NzEzLDk2Ny4xNjQ5LDU5OC4yOTY4LDk3NC4xNiw2MDUuMjMiIHN0eWxlPSJzdHJva2U6IzE4MTgxODtzdHJva2Utd2lkdGg6MS4wOyIvPjx0ZXh0IGZpbGw9IiMwMDAwMDAiIGZvbnQtZmFtaWx5PSJzYW5zLXNlcmlmIiBmb250LXNpemU9IjEzIiBsZW5ndGhBZGp1c3Q9InNwYWNpbmciIHRleHRMZW5ndGg9IjI4IiB4PSI5MjkiIHk9IjQ5MS4yODkxIj51c2VzPC90ZXh0PjwvZz48IS0tU1JDPVtmTE5EUlhlbjRCeGxLd291UDU3WDFMTzhZUEFjZWU4SzFUZkJyOEZQZE8wTGhudFAxZUJJbGRsejJ4UHRlT1RvTThyZGxmZHZ2aVZjQmZ6SzVHV25IUnBFQXVBNG9DbXRMN3pha1ZlRHlxZVRQZE1QaG9KN1RFa0tHWThreHo2ZnAzNkxKV1VxSlpHNmpTT0Q5RHVBc1E3TFlUUWRqclp6QVExS241RzZDT2oxSTYzR3BacjhxbXZRNlZpa3ZIUmFyQUdnLVdhUFB6NUVCUGk4UkRTWU9zN0JjSDMyWmcwZ3NkQ0VEQVoxQUtBVUFpLTZDR0E4TlhCUEE0bFdjRE41X3hOMUt3aUdqTDdkUzAxSTRGc3pJYTRvUW1ZUXkyVkJ4ZEJUVzBNWVEwaXlzZ2pHN293TUFGQ3Y1ZDlxNlZCT1BHV3kyYXlIclZMdjN5ZldDUEF2OU5sSTN3NEVvUTVYMS1XMk5xQWY2TWMwcTNNc0k5Zmc3eDJhVWZYTXB3WmFaNEhiVG1CWVlfTTBXUVppdHpSbUJlc1N0QjFoVFpsYmN6dndvWlZTUnZhOXNxdXU4NlZIT2Q5OWZ3cFBpQ19pTkk2eUVCOFQ3MFQ4RHkwb2RBUGhTNVRoTWVETWRKeW14OFZNaTFnX2QzZUM3MHhpNUplQ3JHd2dMdmlZaU9XVEV2d2RRX0hjZVdrNFFKSDFlX1ptMURJWEc3bWhfQk95X3VneUx3MmtCdlFkMVFsdDE2b1NsNDBSOEpjZ1AzX3BhaENhU0J5TlpKYS1lWVB6Mk1EeXFTUVRzclQ5VjQwSUVjZ3NsWkZ3bWtCMkx5Z1RXNkhxWVFHNDdaVVhQVkhLQ0xNQkhZakQ4ODV1b2VjdzJFeE5wM2NSRG9IckZ4eWNVamRLamt3Uko3eWtBYWpYRFBsX19GOWFuQV9Wdl9UNk1DdWR3emRaWnVNRHlHRzRJU29lc0U0dGFHTl9SeUZYRTdnTW9ob3Q1bzF3TVVVYnhLMHRIYkdFUGFTcWVEREo4VmNVdGVlUmE1OVd6TW8zTlhBSDd4N1N6UjlhSXFRX1h5RnNHOUlWeUJmX0w2Mnd2dWx6Mm0wMF0tLT48L2c+PC9zdmc+;" vertex="1" parent="1">
            <mxGeometry x="-1063" y="-130" width="1299" height="1000" as="geometry" />
          </mxCell>
        </UserObject>
      </root>
    </mxGraphModel>
  </diagram>
</mxfile>
